<?xml version="1.0" encoding="utf-8"?>
<!-- Generator: Adobe Illustrator 25.0.1, SVG Export Plug-In . SVG Version: 6.00 Build 0)  -->
<svg version="1.1" id="Layer_1" xmlns="http://www.w3.org/2000/svg" xmlns:xlink="http://www.w3.org/1999/xlink" x="0px" y="0px"
	 viewBox="0 0 500 500" style="enable-background:new 0 0 500 500;" xml:space="preserve">
<style type="text/css">
	.st0{fill:#333333;}
	.st1{fill:#3C414C;}
	.st2{fill:#37ACE2;}
	.st3{fill:#010101;}
	.st4{fill:#FFFFFF;}
	.st5{fill:#292929;}
	.st6{fill:#00AFF0;}
</style>
<rect class="st5" width="500" height="500"/>
<g>
	<g>
		<polygon class="st6" points="163.1,191.5 224.2,156.2 198,141.1 136.8,176.4 		"/>
		<polygon class="st6" points="193.6,214.2 228.6,194 228.6,163.8 167.4,199.1 167.4,310.1 224.2,277.3 193.6,259.7 		"/>
		<polygon class="st6" points="263.6,289.9 263.6,259.7 202.4,224.3 202.4,254.6 		"/>
		<polygon class="st6" points="132.5,184 132.5,295 158.7,310.1 158.7,199.1 		"/>
		<polygon class="st6" points="364.1,196.6 307.3,163.8 307.3,199.1 267.9,221.8 233,201.6 206.8,216.7 267.9,252.1 		"/>
		<polygon class="st6" points="272.3,138.5 272.3,209.2 298.5,194 298.5,123.4 		"/>
		<polygon class="st6" points="272.3,259.7 272.3,289.9 368.5,234.4 368.5,204.2 		"/>
		<polygon class="st6" points="171.8,75.5 267.9,131 294.1,115.8 198,60.3 		"/>
		<polygon class="st6" points="167.4,148.6 198,131 237.3,153.7 237.3,194 263.6,209.2 263.6,138.5 167.4,83 		"/>
	</g>
	<g>
		<path class="st4" d="M64.5,411.4H46.9v-44.7h17.6c6.4,0,11.6,1.9,15.7,5.6c2.2,2,3.9,4.4,5,7.2c1.1,2.8,1.7,6,1.7,9.5
			c0,3.5-0.6,6.7-1.7,9.6c-1.1,2.8-2.8,5.2-5,7.2c-2,1.8-4.3,3.2-7,4.2C70.6,410.9,67.7,411.4,64.5,411.4z M55.5,403.8h9.1
			c1.6,0,3.2-0.2,4.8-0.5c1.6-0.4,3.1-1.1,4.4-2.2c1.3-1.1,2.4-2.6,3.3-4.5c0.8-1.9,1.3-4.4,1.3-7.5c0-3.1-0.4-5.6-1.3-7.5
			c-0.8-1.9-2-3.4-3.3-4.5c-1.3-1.1-2.8-1.8-4.5-2.1s-3.2-0.5-4.8-0.5h-9.1V403.8z"/>
		<path class="st4" d="M106.2,374.3v11.2h21.6v7.8h-21.6v10.5h24.4v7.7H97.6v-44.7h32.9v7.6H106.2z"/>
		<path class="st4" d="M182.7,366.8l-21.3,44.6H161l-21.2-44.6h9.4l12,25.9l12-25.9H182.7z"/>
		<path class="st4" d="M188.8,405.5l4.6-6.8c2.2,1.5,4.5,2.9,6.9,4c2.4,1.1,4.9,1.7,7.5,1.7c1.4,0,2.6-0.2,3.7-0.5
			c1.1-0.3,2-0.8,2.7-1.3c0.7-0.5,1.3-1.2,1.6-1.9c0.4-0.7,0.5-1.4,0.5-2.1c0-0.9-0.3-1.7-0.8-2.3c-0.6-0.6-1.3-1.2-2.2-1.6
			s-2-0.7-3.2-1c-1.2-0.3-2.5-0.5-3.9-0.8c-0.9-0.2-1.9-0.4-3.1-0.6c-1.2-0.2-2.4-0.5-3.7-0.9c-1.3-0.4-2.5-0.9-3.7-1.5
			c-1.2-0.6-2.3-1.4-3.3-2.4c-1-0.9-1.8-2.1-2.4-3.4c-0.6-1.3-0.9-2.9-0.9-4.7c0-2.6,0.5-4.8,1.6-6.5c1.1-1.7,2.4-3.1,4.1-4.1
			c1.6-1,3.5-1.7,5.5-2.1s4-0.6,5.8-0.6c1.9,0,3.5,0.1,5,0.4c1.5,0.2,2.8,0.6,4.1,1.1c1.3,0.5,2.5,1.1,3.7,1.8
			c1.2,0.7,2.5,1.6,3.9,2.5l-4.8,6.7c-2.1-1.5-4.2-2.6-6.1-3.4c-2-0.8-4-1.2-6.2-1.2c-0.7,0-1.6,0.1-2.5,0.3
			c-0.9,0.2-1.8,0.5-2.7,0.9s-1.5,0.9-2.1,1.6c-0.5,0.6-0.8,1.4-0.8,2.3c0,0.9,0.3,1.6,1,2.3c0.6,0.6,1.5,1.1,2.5,1.5
			c1,0.4,2.1,0.7,3.4,1c1.2,0.3,2.4,0.6,3.5,0.8c0.8,0.2,1.9,0.4,3,0.6c1.2,0.2,2.4,0.5,3.6,0.8c1.2,0.4,2.5,0.8,3.7,1.5
			c1.2,0.6,2.3,1.4,3.3,2.4c0.9,1,1.7,2.1,2.3,3.5c0.6,1.4,0.9,3.1,0.9,5.1c0,2.3-0.4,4.3-1.2,6c-0.8,1.7-2,3.1-3.5,4.2
			s-3.3,2-5.4,2.5s-4.4,0.8-6.9,0.8c-2.3,0-4.4-0.2-6.1-0.5c-1.8-0.3-3.4-0.8-4.9-1.4c-1.5-0.6-2.8-1.3-4.2-2.1
			C191.6,407.4,190.2,406.5,188.8,405.5z"/>
		<path class="st4" d="M255.9,412.2c-2.9,0-5.5-0.4-7.9-1.3c-2.4-0.9-4.4-2.2-6-3.8c-1.7-1.6-3-3.6-3.9-5.9s-1.4-4.9-1.4-7.8v-26.6
			h8.5v26.6c0,2.2,0.4,4.1,1.1,5.5c0.7,1.5,1.6,2.6,2.7,3.5c1.1,0.8,2.2,1.4,3.5,1.8c1.2,0.3,2.4,0.5,3.3,0.5c1,0,2.1-0.2,3.3-0.5
			s2.4-0.9,3.5-1.8c1.1-0.8,2-2,2.7-3.5c0.7-1.5,1.1-3.3,1.1-5.5v-26.6h8.5v26.6c0,2.8-0.4,5.4-1.3,7.8s-2.2,4.3-3.9,5.9
			c-1.7,1.6-3.7,2.9-6,3.8C261.5,411.8,258.8,412.2,255.9,412.2z"/>
		<path class="st4" d="M309.3,366.7c2.2,0,4.3,0.4,6.2,1.3s3.6,2,5,3.4c1.4,1.4,2.6,3.1,3.4,5c0.8,1.9,1.3,4,1.3,6.2
			c0,2.2-0.4,4.2-1.1,6.1c-0.7,1.9-1.8,3.5-3.2,4.9c-1.4,1.4-3.2,2.5-5.4,3.3c-2.2,0.8-4.7,1.2-7.5,1.2h-10v13.3h-8.5v-44.7H309.3z
			 M309.3,390.4c1.3,0,2.4-0.2,3.3-0.6c0.9-0.4,1.7-1,2.3-1.7c0.6-0.7,1-1.6,1.3-2.5c0.3-0.9,0.4-1.9,0.4-2.9c0-1-0.2-2-0.5-3
			c-0.4-1-0.9-1.9-1.6-2.7c-0.7-0.8-1.5-1.4-2.6-1.9c-1-0.5-2.2-0.7-3.5-0.7H298v16.1L309.3,390.4L309.3,390.4z"/>
		<path class="st4" d="M355.3,366.7c2.2,0,4.3,0.4,6.2,1.3c1.9,0.8,3.6,2,5,3.4c1.4,1.4,2.6,3.1,3.4,5c0.8,1.9,1.3,4,1.3,6.2
			c0,2.2-0.4,4.2-1.1,6.1c-0.7,1.9-1.8,3.5-3.2,4.9c-1.4,1.4-3.2,2.5-5.4,3.3c-2.2,0.8-4.7,1.2-7.5,1.2h-10v13.3h-8.5v-44.7H355.3z
			 M355.3,390.4c1.3,0,2.4-0.2,3.3-0.6c0.9-0.4,1.7-1,2.3-1.7c0.6-0.7,1-1.6,1.3-2.5c0.3-0.9,0.4-1.9,0.4-2.9c0-1-0.2-2-0.5-3
			c-0.4-1-0.9-1.9-1.6-2.7c-0.7-0.8-1.5-1.4-2.6-1.9c-1-0.5-2.2-0.7-3.5-0.7h-10.4v16.1L355.3,390.4L355.3,390.4z"/>
		<path class="st4" d="M413.6,403.8v7.6h-32.2v-44.7h8.5v37.1H413.6z"/>
		<path class="st4" d="M454,366.8c-1.1,1.9-2.5,4-3.9,6.4c-1.5,2.4-3,4.9-4.5,7.4c-1.5,2.5-3.1,5-4.6,7.4c-1.5,2.4-2.8,4.6-4,6.6
			v16.9h-8.5v-16.9c-2.6-4.6-5.5-9.3-8.4-13.9c-3-4.6-5.8-9.2-8.5-13.9h10c1.8,3.1,3.7,6.2,5.6,9.5c1.9,3.3,3.8,6.4,5.6,9.5
			c0.9-1.4,1.8-3,2.8-4.6c1-1.6,2-3.3,2.9-4.9c1-1.6,2-3.3,2.9-4.9s1.9-3.1,2.7-4.5L454,366.8L454,366.8z"/>
	</g>
</g>
</svg>
