<?xml version="1.0" encoding="utf-8"?>
<!-- Generator: Adobe Illustrator 25.0.1, SVG Export Plug-In . SVG Version: 6.00 Build 0)  -->
<svg version="1.1" id="Layer_1" xmlns="http://www.w3.org/2000/svg" xmlns:xlink="http://www.w3.org/1999/xlink" x="0px" y="0px"
	 viewBox="0 0 198 209.6" style="enable-background:new 0 0 198 209.6;" xml:space="preserve">
<style type="text/css">
	.st0{fill:#333333;}
	.st1{fill:#3C414C;}
	.st2{fill:#37ACE2;}
	.st3{fill:#010101;}
	.st4{fill:#FFFFFF;}
	.st5{fill:#292929;}
	.st6{fill:#00AFF0;}
</style>
<g>
	<polygon class="st0" points="25.7,110.1 77,80.4 55,67.7 3.7,97.4 	"/>
	<polygon class="st0" points="51.3,129.1 80.7,112.2 80.7,86.8 29.3,116.4 29.3,209.6 77,182 51.3,167.3 	"/>
	<polygon class="st1" points="110,192.6 110,167.3 58.7,137.6 58.7,163 	"/>
	<polygon class="st0" points="0,103.7 0,196.9 22,209.6 22,116.4 	"/>
	<polygon class="st1" points="194.3,114.3 146.7,86.8 146.7,116.4 113.7,135.5 84.3,118.6 62.3,131.2 113.7,160.9 	"/>
	<polygon class="st2" points="117.3,65.6 117.3,124.9 139.3,112.2 139.3,52.9 	"/>
	<polygon class="st1" points="117.3,167.3 117.3,192.6 198,146.1 198,120.7 	"/>
	<polygon class="st2" points="33,12.7 113.7,59.3 135.7,46.6 55,0 	"/>
	<polygon class="st2" points="29.3,74.1 55,59.3 88,78.3 88,112.2 110,124.9 110,65.6 29.3,19 	"/>
</g>
</svg>
