<?xml version="1.0" encoding="utf-8"?>
<!-- Generator: Adobe Illustrator 24.0.1, SVG Export Plug-In . SVG Version: 6.00 Build 0)  -->
<svg version="1.1" id="Layer_1" xmlns="http://www.w3.org/2000/svg" xmlns:xlink="http://www.w3.org/1999/xlink" x="0px" y="0px"
	 viewBox="0 0 327.91 81.51" style="enable-background:new 0 0 327.91 81.51;" xml:space="preserve">
<style type="text/css">
	.Drop_x0020_Shadow{fill:none;}
	.Round_x0020_Corners_x0020_2_x0020_pt{fill:#FFFFFF;stroke:#000000;stroke-miterlimit:10;}
	.Live_x0020_Reflect_x0020_X{fill:none;}
	.Bevel_x0020_Soft{fill:url(#SVGID_1_);}
	.Dusk{fill:#FFFFFF;}
	.Foliage_GS{fill:#FFDD00;}
	.Pompadour_GS{fill-rule:evenodd;clip-rule:evenodd;fill:#44ADE2;}
	.st0{fill:#010101;}
	.st1{fill:#37ACE2;}
	.st2{fill:#333333;}
	.st3{fill:#3C414C;}
</style>
<linearGradient id="SVGID_1_" gradientUnits="userSpaceOnUse" x1="0" y1="0" x2="0.7071" y2="0.7071">
	<stop  offset="0" style="stop-color:#DEDFE3"/>
	<stop  offset="0.1738" style="stop-color:#D8D9DD"/>
	<stop  offset="0.352" style="stop-color:#C9CACD"/>
	<stop  offset="0.5323" style="stop-color:#B4B5B8"/>
	<stop  offset="0.7139" style="stop-color:#989A9C"/>
	<stop  offset="0.8949" style="stop-color:#797C7E"/>
	<stop  offset="1" style="stop-color:#656B6C"/>
</linearGradient>
<g>
	<path class="st0" d="M98.33,57.69H87.94V31.34h10.39c3.76,0,6.85,1.1,9.27,3.31c1.29,1.18,2.27,2.6,2.93,4.27
		c0.66,1.67,0.99,3.53,0.99,5.6c0,2.09-0.33,3.97-0.99,5.63c-0.66,1.67-1.63,3.09-2.93,4.27c-1.17,1.08-2.55,1.9-4.12,2.45
		C101.91,57.42,100.19,57.69,98.33,57.69z M92.98,53.23h5.36c0.94,0,1.88-0.11,2.84-0.32c0.96-0.22,1.83-0.64,2.61-1.28
		c0.78-0.64,1.42-1.52,1.93-2.65c0.5-1.13,0.76-2.6,0.76-4.43c0-1.82-0.25-3.31-0.76-4.45c-0.5-1.14-1.15-2.02-1.94-2.65
		c-0.79-0.62-1.67-1.04-2.63-1.26c-0.96-0.22-1.9-0.32-2.81-0.32h-5.36V53.23z"/>
	<path class="st0" d="M122.86,35.8v6.59h12.74v4.57h-12.74v6.19h14.36v4.54h-19.4V31.34h19.4v4.46H122.86z"/>
	<path class="st0" d="M168,31.38l-12.53,26.32h-0.29l-12.49-26.32h5.54l7.09,15.26l7.09-15.26H168z"/>
	<path class="st1" d="M171.6,54.24l2.74-4.03c1.32,0.91,2.68,1.7,4.09,2.36c1.4,0.66,2.87,0.99,4.41,0.99c0.82,0,1.54-0.1,2.16-0.31
		c0.62-0.2,1.15-0.47,1.58-0.79c0.43-0.32,0.76-0.7,0.97-1.12c0.22-0.42,0.32-0.83,0.32-1.24c0-0.53-0.16-0.98-0.49-1.35
		s-0.76-0.68-1.3-0.92s-1.18-0.44-1.91-0.61c-0.73-0.17-1.49-0.32-2.29-0.47c-0.53-0.1-1.14-0.21-1.84-0.34
		c-0.7-0.13-1.42-0.31-2.16-0.54c-0.74-0.23-1.48-0.53-2.2-0.9c-0.72-0.37-1.37-0.84-1.94-1.4s-1.04-1.24-1.39-2.02
		c-0.35-0.78-0.52-1.7-0.52-2.75c0-1.54,0.31-2.81,0.94-3.83c0.62-1.02,1.42-1.82,2.39-2.41c0.97-0.59,2.05-1,3.24-1.24
		c1.19-0.24,2.33-0.36,3.44-0.36s2.09,0.07,2.95,0.22c0.86,0.14,1.67,0.35,2.41,0.63s1.47,0.62,2.18,1.04s1.47,0.92,2.29,1.49
		l-2.81,3.96c-1.25-0.86-2.45-1.52-3.6-1.98c-1.15-0.46-2.36-0.68-3.64-0.68c-0.43,0-0.92,0.05-1.48,0.16
		c-0.55,0.11-1.07,0.28-1.57,0.52s-0.9,0.55-1.22,0.92s-0.49,0.82-0.49,1.35c0,0.53,0.19,0.97,0.58,1.33
		c0.38,0.36,0.88,0.66,1.48,0.9s1.26,0.44,1.98,0.61c0.72,0.17,1.42,0.34,2.09,0.5c0.5,0.12,1.1,0.24,1.78,0.36
		c0.68,0.12,1.39,0.29,2.12,0.5c0.73,0.22,1.46,0.5,2.18,0.86s1.36,0.82,1.93,1.39c0.56,0.56,1.02,1.26,1.37,2.09
		c0.35,0.83,0.52,1.83,0.52,3.01c0,1.37-0.24,2.56-0.72,3.56c-0.48,1.01-1.16,1.84-2.05,2.5c-0.89,0.66-1.94,1.16-3.17,1.49
		s-2.58,0.5-4.07,0.5c-1.37,0-2.57-0.1-3.62-0.31c-1.04-0.2-2-0.48-2.86-0.83c-0.86-0.35-1.68-0.76-2.45-1.24
		C173.21,55.34,172.42,54.81,171.6,54.24z"/>
	<path class="st1" d="M211.13,58.16c-1.7,0-3.25-0.26-4.64-0.79c-1.39-0.53-2.58-1.27-3.56-2.23c-0.98-0.96-1.75-2.12-2.29-3.49
		c-0.54-1.37-0.81-2.89-0.81-4.57v-15.7h5.04v15.67c0,1.32,0.22,2.41,0.65,3.27c0.43,0.86,0.97,1.55,1.6,2.05
		c0.64,0.5,1.32,0.85,2.05,1.04s1.39,0.29,1.96,0.29c0.58,0,1.23-0.1,1.96-0.29c0.73-0.19,1.42-0.54,2.05-1.04
		c0.64-0.5,1.17-1.19,1.6-2.05c0.43-0.86,0.65-1.95,0.65-3.27V31.38h5.04v15.7c0,1.68-0.26,3.2-0.79,4.57
		c-0.53,1.37-1.28,2.53-2.27,3.49c-0.98,0.96-2.17,1.7-3.56,2.23C214.42,57.9,212.86,58.16,211.13,58.16z"/>
	<path class="st1" d="M242.63,31.34c1.3,0,2.51,0.25,3.65,0.74c1.14,0.49,2.13,1.16,2.97,2c0.84,0.84,1.51,1.83,2,2.97
		c0.49,1.14,0.74,2.36,0.74,3.65c0,1.3-0.22,2.5-0.65,3.6c-0.43,1.1-1.07,2.07-1.91,2.9c-0.84,0.83-1.9,1.48-3.19,1.94
		c-1.28,0.47-2.77,0.7-4.45,0.7h-5.87v7.85h-5.04V31.34H242.63z M242.63,45.31c0.74,0,1.39-0.13,1.94-0.38
		c0.55-0.25,1-0.59,1.35-1.03c0.35-0.43,0.61-0.92,0.77-1.48c0.17-0.55,0.25-1.13,0.25-1.73c0-0.6-0.11-1.19-0.32-1.78
		c-0.22-0.59-0.53-1.11-0.94-1.57c-0.41-0.46-0.91-0.83-1.51-1.12c-0.6-0.29-1.3-0.43-2.09-0.43h-6.16v9.5H242.63z"/>
	<path class="st1" d="M269.74,31.34c1.3,0,2.51,0.25,3.65,0.74c1.14,0.49,2.13,1.16,2.97,2c0.84,0.84,1.51,1.83,2,2.97
		c0.49,1.14,0.74,2.36,0.74,3.65c0,1.3-0.22,2.5-0.65,3.6c-0.43,1.1-1.07,2.07-1.91,2.9c-0.84,0.83-1.9,1.48-3.19,1.94
		c-1.28,0.47-2.77,0.7-4.45,0.7h-5.87v7.85H258V31.34H269.74z M269.74,45.31c0.74,0,1.39-0.13,1.94-0.38c0.55-0.25,1-0.59,1.35-1.03
		c0.35-0.43,0.61-0.92,0.77-1.48c0.17-0.55,0.25-1.13,0.25-1.73c0-0.6-0.11-1.19-0.32-1.78c-0.22-0.59-0.53-1.11-0.94-1.57
		c-0.41-0.46-0.91-0.83-1.51-1.12c-0.6-0.29-1.3-0.43-2.09-0.43h-6.16v9.5H269.74z"/>
	<path class="st1" d="M304.08,53.23v4.46h-18.97V31.34h5.04v21.89H304.08z"/>
	<path class="st1" d="M327.91,31.38c-0.67,1.1-1.45,2.36-2.32,3.78c-0.88,1.42-1.77,2.86-2.68,4.34c-0.91,1.48-1.81,2.93-2.7,4.36
		c-0.89,1.43-1.67,2.72-2.34,3.87v9.97h-5.04v-9.97c-1.56-2.74-3.22-5.46-4.97-8.17c-1.75-2.71-3.42-5.44-5-8.17h5.87
		c1.08,1.8,2.18,3.66,3.31,5.58c1.13,1.92,2.23,3.78,3.31,5.58c0.53-0.84,1.08-1.74,1.66-2.7c0.58-0.96,1.15-1.93,1.73-2.9
		c0.58-0.97,1.15-1.93,1.71-2.88c0.56-0.95,1.1-1.84,1.6-2.68H327.91z"/>
</g>
<g>
	<polygon class="st2" points="9.96,42.91 29.87,31.41 21.34,26.48 1.42,37.98 	"/>
	<polygon class="st2" points="19.91,50.3 31.3,43.73 31.3,33.88 11.38,45.37 11.38,81.51 29.87,70.83 19.91,65.09 	"/>
	<polygon class="st3" points="42.68,74.94 42.68,65.09 22.76,53.59 22.76,63.44 	"/>
	<polygon class="st2" points="0,40.45 0,76.58 8.53,81.51 8.53,45.37 	"/>
	<polygon class="st3" points="75.4,44.55 56.9,33.88 56.9,45.37 44.1,52.77 32.72,46.2 24.19,51.12 44.1,62.62 	"/>
	<polygon class="st1" points="45.52,25.66 45.52,48.66 54.06,43.73 54.06,20.73 	"/>
	<polygon class="st3" points="45.52,65.09 45.52,74.94 76.82,56.87 76.82,47.02 	"/>
	<polygon class="st1" points="12.8,5.13 44.1,23.2 52.63,18.27 21.34,0.2 	"/>
	<polygon class="st1" points="11.38,28.94 21.34,23.2 34.14,30.59 34.14,43.73 42.68,48.66 42.68,25.66 11.38,7.59 	"/>
</g>
</svg>
