<?xml version="1.0" encoding="utf-8"?>
<!-- Generator: Adobe Illustrator 24.0.0, SVG Export Plug-In . SVG Version: 6.00 Build 0)  -->
<svg version="1.1" id="Layer_1" xmlns="http://www.w3.org/2000/svg" xmlns:xlink="http://www.w3.org/1999/xlink" x="0px" y="0px"
	 viewBox="0 0 462 100" style="enable-background:new 0 0 462 100;" xml:space="preserve">
<style type="text/css">
	.st0{fill:#4D4D4D;}
	.st1{fill:#E86E00;}
	.st2{fill:#F9AC00;}
</style>
<g>
	<polygon class="st0" points="21.94,52.77 41.78,41.32 33.28,36.41 13.44,47.86 	"/>
	<polygon class="st0" points="31.86,60.14 43.2,53.59 43.2,43.77 23.36,55.23 23.36,91.23 41.78,80.59 31.86,74.87 	"/>
	<polygon class="st1" points="54.54,84.68 54.54,74.87 34.7,63.41 34.7,73.23 	"/>
	<polygon class="st0" points="12.02,50.32 12.02,86.32 20.52,91.23 20.52,55.23 	"/>
	<polygon class="st1" points="87.13,54.41 68.71,43.77 68.71,55.23 55.95,62.59 44.62,56.05 36.12,60.96 55.95,72.41 	"/>
	<polygon class="st2" points="57.37,35.59 57.37,58.5 65.87,53.59 65.87,30.68 	"/>
	<polygon class="st1" points="57.37,74.87 57.37,84.68 88.55,66.68 88.55,56.87 	"/>
	<polygon class="st2" points="24.78,15.14 55.95,33.13 64.46,28.23 33.28,10.23 	"/>
	<polygon class="st2" points="23.36,38.86 33.28,33.13 46.04,40.5 46.04,53.59 54.54,58.5 54.54,35.59 23.36,17.59 	"/>
</g>
<g>
	<g>
		<g>
			<g>
				<path class="st0" d="M126.02,23.19h8.48l23.72,55.06h-11.2l-5.13-12.6h-23.88l-4.98,12.6h-10.97L126.02,23.19z M138.46,57.26
					l-8.48-22.4l-8.63,22.4H138.46z"/>
			</g>
		</g>
		<g>
			<g>
				<path class="st0" d="M162.42,23.19h18.51c10.66,0,20.3,3.73,20.3,15.94c0,13.84-10.34,16.33-22.01,16.33h-7v22.79h-9.8V23.19z
					 M178.13,47.07c5.6,0,12.83-0.31,12.83-7.78c0-6.77-6.46-7.7-11.74-7.7h-7v15.48H178.13z"/>
			</g>
		</g>
		<g>
			<g>
				<path class="st0" d="M208,23.19h18.51c10.66,0,20.3,3.73,20.3,15.94c0,13.84-10.34,16.33-22.01,16.33h-7v22.79H208V23.19z
					 M223.71,47.07c5.6,0,12.83-0.31,12.83-7.78c0-6.77-6.46-7.7-11.74-7.7h-7v15.48H223.71z"/>
			</g>
		</g>
		<g>
			<g>
				<path class="st0" d="M265.63,23.19h8.48l23.72,55.06h-11.2l-5.13-12.6h-23.88l-4.98,12.6h-10.97L265.63,23.19z M278.08,57.26
					l-8.48-22.4l-8.63,22.4H278.08z"/>
			</g>
		</g>
		<g>
			<g>
				<path class="st2" d="M303.43,23.19h5.13v50.4h25.67v4.67h-30.8V23.19z"/>
			</g>
		</g>
		<g>
			<g>
				<path class="st2" d="M365.26,21.8c16.8,0,28.47,12.13,28.47,28.93c0,16.8-11.67,28.93-28.47,28.93
					c-16.8,0-28.46-12.13-28.46-28.93C336.8,33.93,348.47,21.8,365.26,21.8z M365.26,74.99c14.39,0,23.33-10.58,23.33-24.27
					s-8.94-24.27-23.33-24.27c-14.39,0-23.33,10.58-23.33,24.27S350.88,74.99,365.26,74.99z"/>
			</g>
		</g>
		<g>
			<g>
				<path class="st2" d="M448.72,74.68c-6.38,3.66-13.38,4.98-20.53,4.98c-16.8,0-28.46-12.13-28.46-28.93
					c0-16.8,11.67-28.93,28.46-28.93c8.17,0,14.78,2.49,19.83,7.62l-3.73,3.89c-3.34-4.04-10.11-6.84-16.1-6.84
					c-14.39,0-23.33,10.58-23.33,24.27s8.94,24.27,23.33,24.27c5.91,0,11.2-0.78,15.4-3.27V53.22h-13.22v-4.67h18.35V74.68z"/>
			</g>
		</g>
	</g>
</g>
</svg>
