<?xml version="1.0" standalone="no"?>
<!DOCTYPE svg PUBLIC "-//W3C//DTD SVG 1.1//EN" "http://www.w3.org/Graphics/SVG/1.1/DTD/svg11.dtd" >
<svg xmlns="http://www.w3.org/2000/svg">
<metadata>Generated by IcoMoon</metadata>
<defs>
<font id="icomoon" horiz-adv-x="1024">
<font-face units-per-em="1024" ascent="960" descent="-64" />
<missing-glyph horiz-adv-x="1024" />
<glyph unicode="&#x20;" horiz-adv-x="512" d="" />
<glyph unicode="&#xe005;" glyph-name="faucet" d="M704 448c176.613 0 320-143.387 320-320 0-35.322-28.678-64-64-64h-128c-35.322 0-64 28.678-64 64s-28.678 64-64 64h-25.58c-41.18-75.461-128.42-128-230.42-128s-189.24 52.539-230.42 128h-185.58c-17.662 0-32 14.338-32 32v192c0 17.662 14.338 32 32 32h237.22c31.42 26.801 70.92 46 114.779 56v95.119l64 6.762 64-6.762v-95.119c43.859-9.859 83.359-29.119 114.779-56h77.221zM163.18 640.18c-18.84-2-35.18 13.621-35.18 33.6v60.441c0 19.979 16.34 35.6 35.18 33.619l220.82-23.32v55.48c0 17.662 14.338 32 32 32h64c17.662 0 32-14.338 32-32v-55.48l220.82 23.32c18.84 1.98 35.18-13.619 35.18-33.619v-60.441c0-19.979-16.34-35.6-35.18-33.6l-284.82 30z" />
<glyph unicode="&#xe041;" glyph-name="trailer" horiz-adv-x="1280" d="M1248 320c17.662 0 32-14.338 32-32v-64c0-17.662-14.338-32-32-32h-675.22c-15.66 108.42-108 192-220.78 192s-205.12-83.58-220.78-192h-99.221c-17.662 0-32 14.338-32 32v576c0 17.662 14.338 32 32 32h1024c17.662 0 32-14.338 32-32v-480h160zM192 472.64v215.36c0 8.83-7.17 16-16 16h-32c-8.83 0-16-7.17-16-16v-256.78c19.719 16.033 41.092 29.896 64 41.42zM384 509.72v178.279c0 8.83-7.17 16-16 16h-32c-8.83 0-16-7.17-16-16v-178.279c10.619 0.979 21.141 2.279 32 2.279s21.381-1.301 32-2.279zM576 431.22v256.78c0 8.83-7.17 16-16 16h-32c-8.83 0-16-7.17-16-16v-215.36c22.908-11.523 44.281-25.387 64-41.42zM768 320v368c0 8.83-7.17 16-16 16h-32c-8.83 0-16-7.17-16-16v-368h64zM960 320v368c0 8.83-7.17 16-16 16h-32c-8.83 0-16-7.17-16-16v-368h64zM352 320c88.307 0 160-71.693 160-160s-71.693-160-160-160-160 71.693-160 160 71.693 160 160 160zM352 96c35.322 0 64 28.678 64 64s-28.678 64-64 64-64-28.678-64-64 28.678-64 64-64z" />
<glyph unicode="&#xe059;" glyph-name="bacteria" horiz-adv-x="1280" d="M544.7 507.2c-4.395-1.893-9.264-2.959-14.352-2.959h-0.068c-0.006 0 0.004-0.029-0.004-0.029-14.541 0-27.064 8.709-32.635 21.189l-7.84 17.699c-2.301-1.459-4.701-2.76-6.941-4.299-6.943-4.893-13.506-10.057-19.879-15.641-8.328-7.123-16.002-14.631-23.301-22.801-5.594-6.033-10.783-12.234-15.74-18.82-1.4-1.939-2.459-4.1-3.799-6.1l17.6-8.219c12.033-5.682 20.305-17.891 20.305-32.072 0-19.584-15.9-35.486-35.486-35.486-5.406 0-10.531 1.213-15.119 3.377l-18 8.441c-3.221-10.006-5.855-20.529-7.74-31.061-3.85-22.436-12.293-43.672-24.16-62.1l18.281-18.74c6.182-6.396 9.982-15.119 9.982-24.709 0-19.617-15.928-35.543-35.545-35.543-10.029 0-19.094 4.162-25.559 10.852l-17.18 17.6c-26.15-17.332-57.645-27.59-91.299-27.76-2.061 0-4.201 0.52-6.201 0.52l-5.74-22c-4.16-15.053-17.959-26.146-34.33-26.146-19.658 0-35.619 15.961-35.619 35.621 0 2.881 0.344 5.682 0.99 8.367l5.76 22.119c-31.113 15.533-56.447 40.225-72.779 70.859l-22.541-6.66c-3.211-0.955-6.605-1.482-10.127-1.482-19.58 0-35.477 15.896-35.477 35.477 0 16.061 10.693 29.643 25.344 34.006l23.16 6.861c-0.285 3.971-0.43 7.672-0.43 11.715 0 8.943 0.707 17.723 2.070 26.285 3.459 20.76 9.459 40.439 15.039 60.439l-20.699 7.080c-13.896 4.805-23.869 17.99-23.869 33.51 0 19.574 15.893 35.467 35.467 35.467 4.055 0 7.951-0.682 11.582-1.938l20.959-7.18c12.807 30.639 28.297 60.145 46 87.82l-17.76 12.939c-8.875 6.42-14.604 16.873-14.604 28.652 0 7.813 2.543 15.037 6.844 20.889 6.496 8.85 16.986 14.549 28.795 14.549 7.842 0 15.094-2.535 20.984-6.828l17.641-12.842c21.359 25.713 44.424 49.029 69.9 70.66l-12.9 17.221c-4.443 5.914-7.125 13.275-7.125 21.236 0 11.652 5.645 21.996 14.346 28.443 5.949 4.406 13.324 7.061 21.289 7.061 11.676 0 22.055-5.602 28.59-14.26l12.641-16.861c27.672 18.107 57.174 33.967 87.881 47.141l-6.98 19.6c-1.316 3.717-2.055 7.736-2.055 11.902 0 19.65 15.953 35.604 35.604 35.604 15.486 0 28.676-9.908 33.57-23.725l6.76-18.92c21.801 6.34 43.461 12.779 66.221 16.439 9.027 1.518 18.053 2.305 27.508 2.305 2 0 3.99-0.035 5.973-0.105l5.639 21.561c3.973 15.33 17.902 26.691 34.467 26.691 19.652 0 35.609-15.955 35.609-35.607 0-3.088-0.395-6.086-1.135-8.943l-5.68-21.701c31.105-15.662 56.424-40.436 72.76-71.139l22.68 6.719c3.217 0.961 6.619 1.49 10.146 1.49 19.584 0 35.482-15.9 35.482-35.482 0-16.057-10.688-29.637-25.33-34.008l-23.699-7.020c0.24-3.645 0.252-7.359 0.252-11.064 0-31.172-8.6-60.352-23.553-85.295l19.441-17.521c7.139-6.5 11.594-15.859 11.594-26.266 0-19.609-15.92-35.529-35.527-35.529-9.203 0-17.594 3.508-23.906 9.256l-20 18c-19.711-13.77-42.844-23.484-67.5-27.68-8.338-1.619-16.711-3.711-24.721-6.16l8-18.16c1.938-4.377 3.059-9.229 3.059-14.32 0-14.523-8.76-27.016-21.279-32.48zM256 448c35.322 0 64 28.678 64 64s-28.678 64-64 64-64-28.678-64-64 28.678-64 64-64zM416 640c17.662 0 32 14.338 32 32s-14.338 32-32 32-32-14.338-32-32 14.338-32 32-32zM1278.52 549.4c0.941-3.186 1.449-6.547 1.449-10.035 0-16.090-10.758-29.688-25.469-33.984l-23.16-6.861c0.287-3.99 0.434-7.711 0.434-11.773 0-8.957-0.709-17.75-2.074-26.326-3.459-20.74-9.459-40.42-15.039-60.42l20.68-7.061c13.896-4.805 23.869-17.988 23.869-33.51 0-19.574-15.893-35.467-35.469-35.467-4.053 0-7.951 0.682-11.58 1.938l-20.961 7.18c-12.811-30.643-28.299-60.156-46-87.84l17.762-12.92c9.275-6.412 15.295-17.086 15.295-29.205 0-19.604-15.916-35.52-35.52-35.52-8.203 0-15.76 2.787-21.775 7.465l-17.641 12.84c-21.365-25.715-44.43-49.035-69.9-70.68l12.9-17.221c4.479-5.922 7.184-13.309 7.184-21.299 0-11.682-5.68-22.045-14.424-28.48-5.947-4.41-13.32-7.068-21.285-7.068-11.672 0-22.047 5.605-28.574 14.268l-12.641 16.859c-27.676-18.105-57.178-33.971-87.881-47.16l6.98-19.58c1.316-3.715 2.055-7.736 2.055-11.9 0-19.65-15.953-35.604-35.604-35.604-15.486 0-28.676 9.908-33.57 23.725l-6.76 18.92c-21.721-6.34-43.461-12.699-66.201-16.48-9.029-1.516-18.057-2.305-27.514-2.305-1.998 0-3.986 0.035-5.967 0.105l-5.639-21.561c-3.973-15.33-17.902-26.691-34.467-26.691-19.652 0-35.607 15.955-35.607 35.609 0 3.088 0.393 6.084 1.133 8.943l5.682 21.699c-31.133 15.658-56.473 40.441-72.82 71.16l-22.68-6.721c-3.221-0.961-6.627-1.492-10.158-1.492-19.584 0-35.484 15.9-35.484 35.486 0 16.055 10.684 29.633 25.322 34.006l23.719 7.021c-0.238 3.645-0.25 7.357-0.25 11.063 0 31.174 8.598 60.354 23.551 85.297l-19.439 17.5c-7.377 6.514-12.006 16.033-12.006 26.639 0 19.615 15.926 35.541 35.541 35.541 9.396 0 17.947-3.656 24.305-9.619l20-18c19.713 13.816 42.859 23.572 67.539 27.799 8.342 1.609 16.715 3.703 24.721 6.16l-8 18.16c-1.926 4.365-3.039 9.203-3.039 14.277 0 14.508 8.74 26.99 21.238 32.463 4.396 1.908 9.27 2.988 14.361 3 0.008 0-0.004 0.029 0.004 0.029 14.541 0 27.064-8.709 32.635-21.189l7.84-17.699c2.301 1.459 4.701 2.76 6.941 4.299 6.98 4.9 13.584 10.072 20 15.66 8.277 7.070 15.898 14.533 23.139 22.66 5.652 6.064 10.887 12.307 15.881 18.939 1.381 1.941 2.439 4.1 3.779 6.1l-17.6 8.221c-12.033 5.682-20.305 17.891-20.305 32.070 0 19.586 15.9 35.486 35.486 35.486 5.406 0 10.531-1.211 15.119-3.377l18-8.439c3.219 9.998 5.854 20.516 7.74 31.039 3.84 22.447 12.285 43.691 24.16 62.121l-18.281 18.74c-6.182 6.396-9.982 15.119-9.982 24.707 0 19.619 15.928 35.545 35.545 35.545 10.029 0 19.094-4.162 25.559-10.852l17.18-17.621c26.145 17.346 57.641 27.613 91.299 27.781 2.061 0 4.201-0.521 6.201-0.521l5.74 22c4.201 14.992 17.969 26.027 34.295 26.027 19.66 0 35.621-15.961 35.621-35.619 0-2.832-0.332-5.586-0.957-8.229l-5.76-22.119c31.105-15.545 56.438-40.232 72.779-70.859l22.541 6.66c3.195 0.957 6.578 1.479 10.084 1.479h0.076c0.012 0 0.016-0.002 0.027-0.002 16.092 0 29.701-10.705 34.092-25.377zM832 128c35.322 0 64 28.678 64 64s-28.678 64-64 64-64-28.678-64-64 28.678-64 64-64z" />
<glyph unicode="&#xe05a;" glyph-name="bacterium" d="M1022 754.14c1.27-4.268 1.953-8.775 1.953-13.453 0-21.455-14.342-39.59-33.953-45.328l-31.58-9.359c0.313-4.816 0.326-9.723 0.326-14.617 0-41.635-11.504-80.605-31.506-113.902l25.879-23.34c10.342-8.695 16.881-21.717 16.881-36.271 0-26.148-21.23-47.379-47.379-47.379-12.955 0-24.705 5.211-33.262 13.65l-26.66 24c-26.264-18.428-57.107-31.441-90-37.080-11.125-2.143-22.297-4.93-32.979-8.201l10.719-24.219c2.559-5.832 4.025-12.346 4.025-19.117 0-26.207-21.275-47.482-47.482-47.482-19.434 0-36.158 11.703-43.502 28.439l-10.461 23.6c-3.059-1.961-6.26-3.74-9.26-5.74-9.234-6.514-17.969-13.381-26.459-20.801-11.16-9.531-21.43-19.596-31.182-30.559-7.438-8.004-14.334-16.238-20.92-24.98-1.859-2.58-3.26-5.48-5.039-8.119l23.439-10.98c16.416-7.43 27.764-23.906 27.764-43.084 0-26.115-21.203-47.318-47.32-47.318-7.471 0-14.537 1.734-20.822 4.822l-24 11.279c-4.297-13.342-7.811-27.375-10.32-41.42-5.125-29.918-16.387-58.236-32.221-82.799l24.381-25c7.848-8.459 12.643-19.807 12.643-32.244 0-26.16-21.24-47.4-47.4-47.4-13.025 0-24.832 5.268-33.402 13.783l-22.9 23.48c-34.867-23.117-76.865-36.803-121.74-37.039-2.721 0-5.52 0.6-8.26 0.699l-7.619-29.26c-5.348-20.354-23.879-35.4-45.9-35.4h-0.1c-4.146 0.006-8.154 0.529-12 1.5-20.398 5.26-35.502 23.771-35.502 45.803 0 4.094 0.521 8.068 1.502 11.857l7.699 29.5c-41.482 20.725-75.264 53.641-97.061 94.48l-30-8.881c-4.281-1.277-8.811-1.979-13.506-1.979-26.096 0-47.281 21.186-47.281 47.281 0 21.398 14.248 39.498 33.768 45.318l30.881 9.119c-0.398 5.441-0.602 10.516-0.602 16.059 0 11.787 0.916 23.365 2.682 34.662 4.74 27.348 11.057 54.775 18.6 81.059l-26 8.961c-18.953 6.168-32.643 23.963-32.643 44.961 0 26.105 21.193 47.301 47.299 47.301 5.721 0 11.205-1.018 16.283-2.883l25.859-8.859c17.23 41.006 38.051 80.479 61.84 117.5l-22.18 16.121c-12.41 8.541-20.469 22.799-20.469 38.99 0 26.139 21.221 47.359 47.359 47.359 10.971 0 21.076-3.738 29.109-10.010l22-16c28.545 34.498 59.363 65.803 93.4 94.879l-16 21.26c-5.908 7.875-9.475 17.674-9.475 28.268 0 15.533 7.529 29.322 19.135 37.912 7.93 5.877 17.76 9.416 28.377 9.416 15.563 0 29.395-7.469 38.104-19.016l16-21.26c36.947 24.426 76.338 45.834 117.379 63.66l-8.6 24.1c-1.6 4.754-2.496 9.871-2.496 15.162 0 26.205 21.275 47.48 47.48 47.48 20.391 0 37.795-12.881 44.516-30.941l8.6-24c28.682 8.545 58.695 15.621 88.66 20.82 12.092 2.023 24.178 3.074 36.84 3.074 2.617 0 5.225-0.045 7.82-0.135l7.52 28.74c5.299 20.459 23.889 35.625 45.996 35.625 26.225 0 47.518-21.293 47.518-47.518 0-4.119-0.525-8.115-1.514-11.928l-7.58-28.939c41.48-20.867 75.236-53.898 97-94.842l30.24 8.961c4.297 1.279 8.836 1.971 13.545 1.971 21.469 0 39.633-14.268 45.516-33.83zM320 224c52.984 0 96 43.016 96 96s-43.016 96-96 96-96-43.016-96-96 43.016-96 96-96zM480 496c26.492 0 48 21.508 48 48s-21.508 48-48 48-48-21.508-48-48 21.508-48 48-48z" />
<glyph unicode="&#xe05b;" glyph-name="box-tissue" d="M767.76 384.36h-512l-128 576h282.8c61.982-0.004 114.604-40.232 133.199-96 18.59-55.764 71.203-95.992 133.18-96h218.82zM-0.24 0.359v128h1024v-128c0-35.322-28.678-64-64-64h-896c-35.322 0-64 28.678-64 64zM959.76 512.36c35.312-0.010 63.98-28.684 63.98-64v-256h-1024v256c0 35.322 28.678 64 64 64h98l28.439-128h-30.42c-17.66 0-32-14.338-32-32 0-17.66 14.34-32 32-32h704c17.662 0 32 14.34 32 32 0 17.662-14.338 32-32 32h-28.539l42.66 128h81.879z" />
<glyph unicode="&#xe05c;" glyph-name="hand-holding-medical" horiz-adv-x="1152" d="M319.76 608.36c-17.66 0-32 14.34-32 32v128c0 17.662 14.34 32 32 32h128v128c0 17.662 14.34 32 32 32h128c17.662 0 32-14.338 32-32v-128h128c17.662 0 32-14.338 32-32v-128c0-17.66-14.338-32-32-32h-128v-128c0-17.66-14.338-32-32-32h-128c-17.66 0-32 14.34-32 32v128h-128zM1136.14 287.74c9.742-13.254 15.609-29.646 15.609-47.342 0-26.396-12.811-49.824-32.551-64.398l-270.058-199.141c-34.557-25.324-77.34-40.43-123.4-40.539h-694c-17.605 0.119-31.881 14.395-32 32v192c0.119 17.605 14.395 31.879 32 32h110.721l93 75.48c40.449 32.773 92.123 52.5 148.189 52.5h320.049c35.389 0 64.131-28.672 64.131-64.061 0-3.646-0.305-7.221-0.891-10.701-5.24-31.479-34.74-53.219-66.74-53.219h-156.479c-17.662 0-32-14.34-32-32 0-17.662 14.338-32 32-32h241.218l239.34 176.359c13.266 9.82 29.703 15.74 47.459 15.74 26.426 0 49.871-12.871 64.402-32.68z" />
<glyph unicode="&#xe05d;" glyph-name="hand-sparkles" horiz-adv-x="1280" d="M213.32 618.72l-41.48-99.24c-2.174-4.391-6.686-7.414-11.912-7.414s-9.754 3.023-11.928 7.414l-41.32 99.32h-0.141l-99.18 41.199c-4.219 2.41-7.109 6.859-7.359 12v0c0.248 5.152 3.158 9.607 7.4 12l99.359 41.381 41.4 99.26c2.184 4.377 6.691 7.389 11.912 7.389s9.744-3.012 11.928-7.389l41.32-99.281h0.141l99.139-41.34c4.227-2.4 7.121-6.854 7.361-12v0c-0.252-5.141-3.143-9.59-7.361-12l-99.279-41.299zM942.76 25.18l74.98-31.26 0.141-0.34c-15.182-34.119-48-57.58-86.48-57.58h-395.22c-31.896 0.055-60.125 15.59-77.58 39.58l-251.2 345.22c-9.609 13.203-15.361 29.596-15.361 47.16 0 44.17 35.859 80.031 80.029 80.031 26.605 0 50.197-13.012 64.752-33.012l47.18-64.98v482c0 35.322 28.678 64 64 64s64-28.678 64-64v-304c0-8.83 7.17-16 16-16h32c8.83 0 16 7.17 16 16v368c0 35.322 28.678 64 64 64s64-28.678 64-64v-368c0-8.83 7.17-16 16-16h32c8.83 0 16 7.17 16 16v304c0 35.322 28.678 64 64 64s64-28.678 64-64v-304c0-8.83 7.17-16 16-16h32c8.83 0 16 7.17 16 16v144c0 35.322 28.678 64 64 64s64-28.678 64-64v-352.060c-0.039-2.619-0.539-5.34-0.539-8-15.541-7.42-29-19.199-36.701-34.68l-0.939-1.9-0.82-2-31.26-74.959-76.98-32.121-2-0.979c-25.344-12.705-42.758-38.838-42.758-69.096s17.414-56.48 42.758-69.186l2-1zM699.58 280.96c2.631 1.311 4.439 4.018 4.439 7.154s-1.809 5.854-4.439 7.164l-59.58 24.84-24.859 59.561c-1.314 2.619-4.018 4.42-7.146 4.42s-5.84-1.801-7.154-4.42l-24.84-59.561-59.58-24.84c-2.631-1.311-4.439-4.018-4.439-7.154s1.809-5.854 4.439-7.164l59.58-24.82 24.859-59.561c1.314-2.619 4.018-4.42 7.146-4.42s5.84 1.801 7.154 4.42l24.84 59.561zM1280 96.18l-0.141-0.141c-0.271-5.102-3.16-9.514-7.359-11.898l-99.279-41.32-41.381-99.24c-2.174-4.391-6.686-7.414-11.912-7.414s-9.754 3.023-11.928 7.414l-41.32 99.18h-0.141l-99.139 41.34c-4.201 2.385-7.088 6.797-7.361 11.9v0c0.236 5.146 3.133 9.602 7.361 12l99.359 41.48 41.4 99.26c2.184 4.377 6.691 7.389 11.912 7.389s9.744-3.012 11.928-7.389l41.359-99.221h0.141l99.141-41.34c4.227-2.398 7.125-6.854 7.359-12z" />
<glyph unicode="&#xe05e;" glyph-name="hands-wash" horiz-adv-x="1152" d="M992 512c-52.984 0-96 43.016-96 96s43.016 96 96 96 96-43.016 96-96-43.016-96-96-96zM622.94 603.1l-32.16-9.939 41.801 132.34c7 22.141 28.359 37.721 51.42 35.020 24.102-2.545 42.945-22.965 42.945-47.736 0-5.068-0.787-9.955-2.246-14.543l-30.699-97.221c-11.834 4.387-24.674 6.869-38 6.98-0.021 0-0.037-0.021-0.061-0.021-11.475 0-22.555-1.707-33-4.879zM187.301 187.34c-72.865 42.232-121.975 120.486-123.301 210.38v225.458c0.359 26.641 23.34 47.82 49.801 47.721 26.361-0.154 47.721-21.598 47.721-47.994 0-0.102 0-0.205-0.002-0.307l4.121-100.1 120 379.7c7 22.141 28.359 37.801 51.42 34.92 24.074-2.572 42.889-22.977 42.889-47.73 0-5.049-0.781-9.916-2.229-14.488l-77.121-244c-0.48-1.521-0.746-3.143-0.746-4.82 0-8.834 7.17-16.004 16.004-16.004 7.152 0 13.215 4.703 15.262 11.184l95.861 303.42c7.020 22.121 28.359 37.701 51.42 35.020 24.074-2.572 42.889-22.977 42.889-47.73 0-5.049-0.781-9.916-2.229-14.488l-86.74-275.58c-0.482-1.525-0.75-3.148-0.75-4.832 0-8.834 7.172-16.006 16.006-16.006 7.152 0 13.213 4.701 15.264 11.178l66.9 212.84c7 22.141 28.379 37.721 51.439 35.039 24.074-2.572 42.889-22.977 42.889-47.73 0-5.049-0.781-9.916-2.229-14.488l-68.32-216.24-147.4-45.52c-124.26-41.057-214.010-158.080-214.12-296v-51.381c-1.619-0.34-3.1-1.039-4.699-1.42zM1038.2 288c23.221 0 44.5-15.68 48.881-38.48 0.625-3.088 0.955-6.248 0.955-9.52 0-26.492-21.51-48-48-48h-320.035c-8.83 0-16-7.17-16-16s7.17-16 16-16h254.2c23.221 0 44.5-15.68 48.881-38.48 0.625-3.088 0.955-6.248 0.955-9.52 0-26.492-21.51-48-48-48h-256.035c-8.83 0-16-7.17-16-16s7.17-16 16-16h190.199c23.221 0 44.5-15.68 48.881-38.48 0.625-3.088 0.955-6.248 0.955-9.52 0-26.492-21.51-48-48-48h-416.035c-45.348 0.172-87.99 13.213-124 35.439 7.725 18.727 11.934 39.34 11.934 60.84 0 77.238-54.998 141.73-127.934 156.42v51.301c0 109.738 71.465 202.862 170.381 235.38l215.44 66.5c4.482 1.385 9.244 2.15 14.18 2.15 26.504 0 48.021-21.518 48.021-48.021 0-21.568-14.25-39.834-33.842-45.891l-94.18-34.119h398.2c23.221 0 44.5-15.68 48.881-38.48 0.625-3.088 0.955-6.248 0.955-9.52 0-26.492-21.51-48-48-48h-256.035c-8.83 0-16-7.17-16-16s7.17-16 16-16h318.2zM832 832c-35.322 0-64 28.678-64 64s28.678 64 64 64 64-28.678 64-64-28.678-64-64-64zM224 128c52.984 0 96-43.016 96-96s-43.016-96-96-96-96 43.016-96 96 43.016 96 96 96z" />
<glyph unicode="&#xe05f;" glyph-name="handshake-alt-slash" horiz-adv-x="1280" d="M717.18 568.8l52.221 47.779c6.395 5.854 10.385 14.262 10.385 23.607 0 17.664-14.342 32.006-32.008 32.006-8.32 0-15.902-3.182-21.598-8.393l-119.379-109.24 660.86-510.76c7.531-5.857 12.342-15.016 12.342-25.285 0-7.389-2.51-14.197-6.723-19.615l-39.279-50.541c-5.857-7.537-15.018-12.352-25.293-12.352-7.395 0-14.205 2.514-19.627 6.732l-1176.7 909.44c-7.531 5.857-12.344 15.016-12.344 25.285 0 7.389 2.51 14.195 6.723 19.615l39.24 50.539c5.855 7.543 15.021 12.363 25.301 12.363 7.398 0 14.217-2.518 19.639-6.742l233.782-180.66 40.68 40.6c11.561 11.6 27.553 18.785 45.199 18.82h167.58l-151.199-138.48 51.379-39.699 176.24 161.359c11.385 10.436 26.576 16.814 43.221 16.82h171.779c17.656-0.029 33.654-7.215 45.221-18.82l109.18-109.18h224c17.6 0 31.9-14.242 32-31.82v-383.6c-0.055-17.637-14.363-31.945-32-32h-195.18c-5.4 30.346-21.529 57.043-44.42 75.82zM32 704h15.119l764.88-591.18-17.6-21.641c-13.631-16.773-34.449-27.424-57.727-27.424-17.756 0-34.064 6.24-46.854 16.645l-35.82 31-0.4-0.4c-23.477-28.869-59.318-47.195-99.393-47.195-30.539 0-58.594 10.719-80.607 28.596l-181 163.779h-260.6c-17.662 0-32 14.34-32 32v383.82c0.055 17.637 14.363 31.945 32 32z" />
<glyph unicode="&#xe060;" glyph-name="handshake-slash" horiz-adv-x="1280" d="M0 703.58h47.66l144.34-111.58v-336c0-35.322-28.678-64-64-64h-128v511.58zM96 319.8c-17.662 0-32-14.34-32-32 0-17.662 14.338-32 32-32s32 14.338 32 32c0 17.66-14.338 32-32 32zM256 256.18v286.38l556-429.74-17.6-21.641c-13.631-16.773-34.449-27.424-57.727-27.424-17.756 0-34.064 6.24-46.854 16.645l-35.82 31-0.4-0.4c-23.477-28.869-59.318-47.195-99.393-47.195-30.539 0-58.594 10.719-80.607 28.596l-181 163.779h-36.6zM1088 703.58h192v-511.78h-128c-35.322 0-64 28.676-64 64v447.78zM1184 255.801c17.662 0 32 14.338 32 32 0 17.66-14.338 32-32 32s-32-14.34-32-32c0-17.662 14.338-32 32-32zM606.66 554.66l661-510.86c7.539-5.857 12.354-15.020 12.354-25.295 0-7.385-2.506-14.188-6.713-19.605l-39.301-50.541c-5.855-7.541-15.021-12.361-25.301-12.361-7.398 0-14.217 2.518-19.639 6.742l-1176.68 909.44c-7.531 5.857-12.344 15.016-12.344 25.285 0 7.389 2.51 14.195 6.723 19.615l39.24 50.539c5.855 7.543 15.021 12.363 25.301 12.363 7.398 0 14.217-2.518 19.639-6.742l233.782-180.68 40.68 40.619c11.561 11.6 27.553 18.785 45.199 18.82h167.58l-151.199-138.48 51.279-39.619 176.141 161.279c11.369 10.439 26.553 16.82 43.189 16.82h171.811c0.023 0 0.053 0.010 0.076 0.010 17.641 0 33.609-7.205 45.123-18.83l109.221-109.18v-387c-4.912 5.563-10.125 10.639-15.82 15.4l-291.18 236.4 52.18 47.779c6.115 5.83 9.904 14.049 9.904 23.156 0 17.662-14.338 32-32 32-8.072 0-15.451-2.996-21.084-7.936z" />
<glyph unicode="&#xe061;" glyph-name="head-side-cough" horiz-adv-x="1280" d="M1232 352c-26.492 0-48 21.508-48 48s21.508 48 48 48 48-21.508 48-48-21.508-48-48-48zM1104 128c26.492 0 48-21.508 48-48s-21.508-48-48-48-48 21.508-48 48 21.508 48 48 48zM976 240c26.492 0 48-21.508 48-48s-21.508-48-48-48-48 21.508-48 48 21.508 48 48 48zM1232 32c26.492 0 48-21.508 48-48s-21.508-48-48-48-48 21.508-48 48 21.508 48 48 48zM1232 240c26.492 0 48-21.508 48-48s-21.508-48-48-48-48 21.508-48 48 21.508 48 48 48zM1104 320c26.492 0 48-21.508 48-48s-21.508-48-48-48-48 21.508-48 48 21.508 48 48 48zM954.44 410c3.527-7.934 5.52-16.766 5.52-26 0-35.309-28.656-63.977-63.959-64h-64v-64h-192c-35.322 0-64-28.678-64-64s28.678-64 64-64h192c0-70.645-57.355-128-128-128h-128v-64h-448v354.24c-78.5 70.52-128 172.26-128 285.76 0 212 172 384 384 384h84.199c140.557-0.094 264.684-69.609 340-176.5 49.24-70 104.24-279.26 146.24-373.5zM576 512c35.287 0.076 63.924 28.713 64 64 0 35.322-28.678 64-64 64s-64-28.678-64-64 28.678-64 64-64z" />
<glyph unicode="&#xe062;" glyph-name="head-side-cough-slash" horiz-adv-x="1280" d="M908.22 321.58l359.44-277.78c7.531-5.857 12.342-15.016 12.342-25.285 0-7.389-2.51-14.197-6.723-19.615l-39.279-50.541c-5.855-7.541-15.021-12.361-25.301-12.361-7.398 0-14.217 2.518-19.639 6.742l-1176.702 909.44c-7.531 5.857-12.342 15.016-12.342 25.285 0 7.389 2.51 14.195 6.723 19.615l39.26 50.539c5.857 7.537 15.018 12.354 25.293 12.354 7.395 0 14.205-2.514 19.627-6.732l77.439-59.84c61.209 41.877 135.594 66.6 215.288 66.6h84.553c140.557-0.094 264.684-69.609 340-176.5 49.24-70 104.24-279.26 146.24-373.5 17.021-38.42-7.1-80.801-46.219-88.42zM626.78 539.1c7.701 10.561 13.221 22.9 13.16 36.9-0.066 35.291-28.707 63.934-64 64-19.859 0-36.959-9.721-48.719-24zM1232 352c-26.492 0-48 21.508-48 48s21.508 48 48 48 48-21.508 48-48-21.508-48-48-48zM1104 224c-26.492 0-48 21.508-48 48s21.508 48 48 48 48-21.508 48-48-21.508-48-48-48zM576 192c0-35.322 28.678-64 64-64h192c0-70.645-57.355-128-128-128h-128v-64h-448v354.24c-78.5 70.52-128 172.26-128 285.76 0.031 62.039 15.121 121.020 41.461 172.82l637.62-492.82h-39.080c-35.322 0-64-28.678-64-64zM1232 240c26.492 0 48-21.508 48-48s-21.508-48-48-48-48 21.508-48 48 21.508 48 48 48z" />
<glyph unicode="&#xe063;" glyph-name="head-side-mask" d="M0.301 591.16c0.891 19.211 3.281 38.016 7.039 56.34l440.66-320.52v-390.98h-320v354.24c-82 73.641-132.34 181.34-127.699 300.92zM1018.44 410c3.258-7.582 5.094-15.959 5.094-24.73 0-0.424-0.004-0.848-0.014-1.27h-545.1l-451.92 328.7c58.461 146.16 207.5 247.3 373.5 247.3h132.221c140.549-0.094 264.672-69.609 339.978-176.5 49.24-70 104.24-279.26 146.24-373.5zM640 512c35.287 0.076 63.924 28.713 64 64 0 35.322-28.678 64-64 64s-64-28.678-64-64 28.678-64 64-64zM672 224c-17.662 0-32-14.338-32-32s14.338-32 32-32h298.68l-21.34-64h-277.34c-17.662 0-32-14.338-32-32s14.338-32 32-32h256l-2.82-8.48c-16.947-50.84-64.916-87.516-121.42-87.52h-291.76v384h512l-32-96h-320z" />
<glyph unicode="&#xe064;" glyph-name="head-side-virus" d="M544 480c17.662 0 32-14.338 32-32s-14.338-32-32-32-32 14.338-32 32 14.338 32 32 32zM416 608c17.662 0 32-14.338 32-32s-14.338-32-32-32-32 14.338-32 32 14.338 32 32 32zM1018.4 410c3.527-7.934 5.518-16.766 5.518-26 0-35.295-28.633-63.955-63.918-64h-64v-128c0-70.645-57.355-128-128-128h-128v-128h-512v354.38c-78.625 70.068-128 172.027-128 285.526v0.094c0 212 172 384 384 384h148.18c140.602 0 264.81-69.545 340.080-176.5 49.279-70.039 104.279-279.26 146.141-373.5zM736 480c17.662 0 32 14.338 32 32s-14.338 32-32 32h-24.24c-57.020 0-85.58 68.939-45.26 109.26l17.16 17.141c5.793 5.793 9.369 13.803 9.369 22.635 0 17.662-14.34 32.004-32.004 32.004-8.832 0-16.832-3.586-22.625-9.379l-17.141-17.16c-40.32-40.32-109.26-11.76-109.26 45.26v24.24c0 17.662-14.338 32-32 32s-32-14.338-32-32v-24.24c0-57.020-68.939-85.58-109.26-45.26l-17.141 17.16c-5.793 5.793-13.803 9.369-22.635 9.369-17.662 0-32.004-14.34-32.004-32.004 0-8.832 3.586-16.832 9.379-22.625l17.16-17.141c40.32-40.32 11.76-109.26-45.26-109.26h-24.24c-17.662 0-32-14.338-32-32s14.338-32 32-32h24.24c57.020 0 85.58-68.939 45.26-109.26l-17.16-17.141c-5.793-5.793-9.369-13.803-9.369-22.635 0-17.662 14.34-32.004 32.004-32.004 8.832 0 16.832 3.586 22.625 9.379l17.141 17.16c40.32 40.32 109.26 11.76 109.26-45.26v-24.24c0-17.662 14.338-32 32-32s32 14.338 32 32v24.24c0 57.020 68.939 85.58 109.26 45.26l17.141-17.16c5.793-5.793 13.803-9.369 22.635-9.369 17.662 0 32.004 14.34 32.004 32.004 0 8.832-3.586 16.832-9.379 22.625l-17.16 17.141c-40.32 40.32-11.76 109.26 45.26 109.26h24.24z" />
<glyph unicode="&#xe065;" glyph-name="house-user" horiz-adv-x="1152" d="M1141.38 487.46c5.816-6.436 9.678-14.738 10.619-23.842-0.777-7.916-3.715-15.293-8.18-21.379l-42.82-47.621c-6.402-5.811-14.67-9.672-23.74-10.619-7.934 0.813-15.328 3.768-21.439 8.24l-31.82 28v-420.24c0-35.322-28.678-64-64-64h-767.82c-35.322 0-64 28.678-64 64v420.22l-31.799-28c-6.086-4.479-13.461-7.43-21.381-8.221-9.154 0.922-17.512 4.777-24 10.6l-42.82 47.58c-4.754 5.912-7.758 13.355-8.18 21.42 0.482 9.248 4.406 17.625 10.52 23.801l512 452c12.561 11.379 36.42 20.6 53.48 20.6s41-9.221 53.561-20.6l202.44-178.74v103.34c0 17.662 14.338 32 32 32h128c17.662 0 32-14.338 32-32v-272.88zM576 608c-70.645 0-128-57.355-128-128s57.355-128 128-128 128 57.355 128 128-57.355 128-128 128zM800 64c17.662 0 32 14.338 32 32 0 105.967-86.033 192-192 192h-128c-105.967 0-192-86.033-192-192 0-17.662 14.338-32 32-32h448z" />
<glyph unicode="&#xe066;" glyph-name="laptop-house" horiz-adv-x="1280" d="M544 384v-256h-352c-35.322 0-64 28.678-64 64v328.24l-43.32-38.24c-5.191-4.057-11.674-6.609-18.68-6.961-8.311 0.443-15.822 4.014-21.32 9.561l-37.58 42.621c-4.137 5.193-6.744 11.717-7.1 18.779 0.469 8.252 4.035 15.707 9.561 21.16l423.6 375c11.080 9.84 32.141 17.84 46.939 17.84 14.801 0 35.9-8 46.9-17.84l177-156.76v78.6c0 17.662 14.338 32 32 32h64c17.662 0 32-14.338 32-32v-192l118.5-104.779c5.492-5.494 9.033-12.963 9.5-21.221-0.373-7.129-3.023-13.709-7.221-18.939l-13.299-15.061h-273.88c-35.6 0-67.379-16.48-89.6-42.24v74.24c0 17.662-14.338 32-32 32h-128c-17.662 0-32-14.338-32-32v-128c0-17.662 14.338-32 32-32h128zM1258.66 64c11.777 0 21.34-9.563 21.34-21.34v-21.32c-0.164-46.977-38.24-85.1-85.199-85.34h-597.602c-46.959 0.24-85.035 38.363-85.199 85.34v21.32c0 11.777 9.563 21.34 21.34 21.34h74.66v320c0 35.34 25.779 64 57.6 64h460.8c31.82 0 57.6-28.66 57.6-64v-320h74.66zM1088 64v288h-384v-288h384z" />
<glyph unicode="&#xe067;" glyph-name="lungs-virus" horiz-adv-x="1280" d="M688 658.64c-13.99 8.441-30.582 13.301-48.1 13.301s-33.91-4.859-47.9-13.301v269.36c0 17.662 14.338 32 32 32h32c17.662 0 32-14.338 32-32v-269.36zM391.080 71.080c16.896-17.359 40.436-28.129 66.551-28.129 5.76 0 11.398 0.523 16.869 1.529-26.086-33.553-62.758-58.289-105-69.5l-119-31.74c-125.5-33.76-250.5 54.76-250.5 177.26 0 0.164 0.025 0.25 0.025 0.414 0 20.344 2.691 40.064 7.734 58.826 44.072 164.92 114.074 321.854 204 462 44.24 69.26 72.24 126.26 160.24 126.26 77.24 0 140-58.76 140-131.5v-55.359c-15.24 10.184-33.664 16.17-53.354 16.17-52.984 0-96-43.018-96-96 0-26.646 10.879-50.77 28.434-68.17l17.16-17.141h-24.24c-52.984 0-96-43.016-96-96s43.016-96 96-96h24.24l-17.16-17.16c-17.348-17.391-28.078-41.414-28.078-67.895s10.73-50.473 28.078-67.865zM843.66 116.34c-5.793-5.793-13.803-9.379-22.635-9.379s-16.832 3.586-22.625 9.379l-17.141 17.141c-40.32 40.32-109.26 11.76-109.26-45.24v-24.24c0-17.662-14.338-32-32-32s-32 14.338-32 32v24.24c0 57-68.939 85.561-109.26 45.24l-17.141-17.141c-5.816-5.992-13.965-9.709-22.967-9.709-17.662 0-32 14.34-32 32 0 8.998 3.721 17.133 9.707 22.949l17.16 17.16c40.32 40.32 11.76 109.26-45.26 109.26h-24.24c-17.662 0-32 14.338-32 32s14.338 32 32 32h24.24c57.020 0 85.58 68.939 45.26 109.24l-17.16 17.16c-5.793 5.793-9.369 13.803-9.369 22.635 0 17.662 14.34 32.004 32.004 32.004 8.832 0 16.832-3.586 22.625-9.379l17.141-17.16c40.32-40.32 109.26-11.76 109.26 45.26v24.24c0 17.662 14.338 32 32 32s32-14.338 32-32v-24.24c0-57.020 68.939-85.58 109.26-45.26l17.141 17.16c5.793 5.793 13.803 9.369 22.635 9.369 17.662 0 32.004-14.34 32.004-32.004 0-8.832-3.586-16.832-9.379-22.625l-17.16-17.16c-40.32-40.301-11.76-109.24 45.26-109.24h24.24c17.662 0 32-14.338 32-32s-14.338-32-32-32h-24.24c-57.020 0-85.58-68.939-45.26-109.26l17.16-17.16c5.787-5.791 9.369-13.797 9.369-22.625 0-8.826-3.582-16.824-9.369-22.615zM576 352c17.662 0 32 14.338 32 32s-14.338 32-32 32-32-14.338-32-32 14.338-32 32-32zM704 224c17.662 0 32 14.338 32 32s-14.338 32-32 32-32-14.338-32-32 14.338-32 32-32zM1272.24 179.74c5.043-18.762 7.76-38.404 7.76-58.748v-0.492c0-122.5-125-211.020-250.5-177.26l-119 31.74c-42.242 11.211-78.914 35.947-105 69.5 5.545-1.006 11.195-1.523 17.029-1.523 52.652 0 95.4 42.748 95.4 95.4 0 26.857-11.123 51.139-29.010 68.482l-17.16 17.16h24.24c52.984 0 96 43.016 96 96s-43.016 96-96 96h-24.24l17.16 17.061c17.555 17.4 28.32 41.479 28.32 68.123 0 52.984-43.016 96-96 96-19.688 0-38-5.939-53.24-16.123v55.439c0 72.74 62.76 131.5 140 131.5 88 0 116-57 160.24-126.26 89.926-140.146 159.928-297.080 204-462z" />
<glyph unicode="&#xe068;" glyph-name="people-arrows" horiz-adv-x="1152" d="M192 704c-70.645 0-128 57.355-128 128s57.355 128 128 128 128-57.355 128-128-57.355-128-128-128zM192 351.84c0-0.080-0.023-0.156-0.023-0.238 0-25.066 10.484-47.703 27.303-63.762l100.721-95.061v-192.779c0-35.322-28.678-64-64-64h-128c-35.322 0-64 28.678-64 64v256c-35.322 0-64 28.678-64 64v192c0 70.645 57.355 128 128 128h128c53.943-0.051 100.061-33.52 118.76-80.859-3.68-2.521-7.92-4.041-11.221-7.141l-144.26-136.16c-16.818-16.068-27.279-38.711-27.279-63.785v-0.215zM960 704c-70.645 0-128 57.355-128 128s57.355 128 128 128 128-57.355 128-128-57.355-128-128-128zM1024 640c70.645 0 128-57.355 128-128v-192c0-35.322-28.678-64-64-64v-256c0-35.322-28.678-64-64-64h-128c-35.322 0-64 28.678-64 64v192.76l100.721 95.1c16.816 16.152 27.289 38.867 27.289 64.004 0 25.135-10.473 47.844-27.289 63.996l-144.24 136.121c-3.24 3.18-7.561 4.639-11.24 7.18 18.707 47.332 64.82 80.793 118.76 80.84h128zM888.8 369.32c4.449-4.484 7.199-10.664 7.199-17.475 0-6.809-2.75-12.982-7.199-17.465l-144.24-136.141c-4.309-4.107-10.145-6.631-16.561-6.631-13.246 0-24 10.754-24 24v72.391h-256v-72.279c0-0.037-0.006-0.072-0.006-0.109 0-13.246-10.754-24-24-24-6.416 0-12.246 2.521-16.555 6.629l-144.24 136.141c-4.449 4.482-7.199 10.664-7.199 17.473 0 6.811 2.75 12.982 7.199 17.467l144.24 136.141c4.309 4.105 10.145 6.629 16.561 6.629 13.246 0 24-10.754 24-24v-72.090h256v72c0 0.023 0.006 0.045 0.006 0.068 0 13.246 10.754 24 24 24 6.416 0 12.246-2.521 16.555-6.629z" />
<glyph unicode="&#xe069;" glyph-name="plane-slash" horiz-adv-x="1280" d="M64.961 664.24c-0.518 2.242-0.773 4.592-0.773 6.99 0 5.891 1.65 11.4 4.512 16.090l649.682-502.122-133.201-233.080c-5.514-9.645-15.883-16.119-27.779-16.119h-131c-17.633 0.033-31.936 14.354-31.936 31.994 0 3.061 0.432 6.021 1.234 8.826l98 343.18h-205.7l-86.4-115.18c-5.836-7.793-15.125-12.814-25.6-12.82h-80c-17.656 0.006-31.988 14.328-31.988 31.986 0 2.674 0.33 5.271 0.949 7.754l63.039 216.26zM1267.64 43.82c7.543-5.857 12.363-15.021 12.363-25.303 0-7.391-2.51-14.197-6.725-19.617l-39.279-50.52c-5.855-7.545-15.021-12.365-25.303-12.365-7.389 0-14.197 2.51-19.617 6.725l-1176.72 909.44c-7.537 5.857-12.352 15.018-12.352 25.293 0 7.395 2.514 14.207 6.732 19.627l39.26 50.52c5.857 7.537 15.018 12.354 25.293 12.354 7.395 0 14.205-2.514 19.627-6.732l378.6-292.6-73.879 258.58c-0.797 2.791-1.229 5.732-1.229 8.779 0 17.658 14.332 31.994 31.988 32h131.020c10.26 0 22.699-7.221 27.801-16.119l210.18-367.88h228.6c70.68 0 192-57.32 192-128s-121.32-128-192-128h-113.721z" />
<glyph unicode="&#xe06a;" glyph-name="pump-medical" horiz-adv-x="768" d="M471.020 640.36c66.674-0.004 121.512-51.225 127.461-116.359l40.74-448c0.352-3.861 0.525-7.646 0.525-11.6 0-70.641-57.348-127.992-127.986-128h-384c-70.645 0-128.012 57.229-128.012 127.873 0 3.953 0.18 7.865 0.531 11.727l40.74 448c5.949 65.135 60.787 116.355 127.461 116.359h302.54zM479.76 293.7v53.32c0 14.725-11.955 26.68-26.68 26.68h-80v80c0 14.715-11.945 26.66-26.66 26.66h-53.34c-14.715 0-26.66-11.945-26.66-26.66v-80h-80c-14.715 0-26.66-11.945-26.66-26.658v-53.342c0-14.717 11.945-26.668 26.66-26.68h80v-80c0-14.713 11.945-26.66 26.66-26.66h53.34c14.715 0 26.66 11.947 26.66 26.66v80h80c14.721 0.012 26.668 11.961 26.68 26.68zM758.38 772.24c5.793-5.793 9.379-13.803 9.379-22.635s-3.586-16.832-9.379-22.625l-45.24-45.24c-5.793-5.795-13.803-9.379-22.635-9.379s-16.834 3.584-22.625 9.379l-86.621 86.619h-133.5v-64h-256v192c0 35.322 28.678 64 64 64h128c35.322 0 64-28.678 64-64h133.5c35.311-0.004 67.316-14.32 90.48-37.479z" />
<glyph unicode="&#xe06b;" glyph-name="pump-soap" horiz-adv-x="768" d="M471.26 640c0.008 0 0.021-0.127 0.029-0.127 66.699 0 121.551-51.125 127.471-116.293l40.721-448c0.35-3.855 0.52-7.635 0.52-11.58 0-70.645-57.355-128-128-128h-384c-70.639 0.008-127.988 57.234-127.988 127.873 0 3.947 0.178 7.852 0.527 11.707l40.721 448c5.92 65.168 60.781 116.42 127.48 116.42h302.52zM320 128c66.24 0 120 52.66 120 117.461 0 50-71.34 150.939-104 194.539-3.648 4.877-9.451 8.037-16.006 8.037-6.535 0-12.344-3.143-15.994-7.998-32.6-43.6-104-144.539-104-194.539 0-64.84 53.76-117.5 120-117.5zM758.62 771.88c5.795-5.793 9.381-13.803 9.381-22.635s-3.586-16.834-9.381-22.627l-45.238-45.238c-5.793-5.795-13.803-9.381-22.635-9.381s-16.834 3.586-22.627 9.381l-86.619 86.619h-133.5v-64h-256v192c0 35.322 28.678 64 64 64h128c35.322 0 64-28.678 64-64h133.5c35.316 0 67.332-14.316 90.5-37.48z" />
<glyph unicode="&#xe06c;" glyph-name="shield-virus" d="M448 576c17.662 0 32-14.338 32-32s-14.338-32-32-32-32 14.338-32 32 14.338 32 32 32zM933 792.64c34.672-14.482 59-48.686 59-88.582v-0.059c0-442.6-271.82-689.22-443.18-760.64-11.352-4.717-23.924-7.32-36.975-7.32-13.049 0-25.494 2.604-36.846 7.32-214 89.201-443 363.64-443 760.64 0 0.033-0.063 0.021-0.063 0.053 0 39.941 24.48 74.211 59.242 88.607l384 160c11.506 4.344 24 6.932 36.92 7.34 12.912-0.416 25.402-3.012 36.9-7.359zM768 448c17.662 0 32 14.338 32 32s-14.338 32-32 32h-24.24c-57.020 0-85.58 68.939-45.26 109.26l17.16 17.141c5.793 5.793 9.369 13.803 9.369 22.635 0 17.662-14.34 32.004-32.004 32.004-8.832 0-16.832-3.586-22.625-9.379l-17.141-17.16c-40.32-40.32-109.26-11.76-109.26 45.26v24.24c0 17.662-14.338 32-32 32s-32-14.338-32-32v-24.24c0-57.020-68.939-85.58-109.26-45.26l-17.141 17.16c-5.793 5.793-13.803 9.369-22.635 9.369-17.662 0-32.004-14.34-32.004-32.004 0-8.832 3.586-16.832 9.379-22.625l17.16-17.141c40.32-40.32 11.76-109.26-45.26-109.26h-24.24c-17.662 0-32-14.338-32-32s14.338-32 32-32h24.24c57.020 0 85.58-68.939 45.26-109.26l-17.16-17.141c-5.793-5.793-9.369-13.803-9.369-22.635 0-17.662 14.34-32.004 32.004-32.004 8.832 0 16.832 3.586 22.625 9.379l17.141 17.16c40.32 40.32 109.26 11.76 109.26-45.26v-24.24c0-17.662 14.338-32 32-32s32 14.338 32 32v24.24c0 57.020 68.939 85.58 109.26 45.26l17.141-17.16c5.793-5.793 13.803-9.369 22.635-9.369 17.662 0 32.004 14.34 32.004 32.004 0 8.832-3.586 16.832-9.379 22.625l-17.16 17.141c-40.32 40.32-11.76 109.26 45.26 109.26h24.24zM576 448c17.662 0 32-14.338 32-32s-14.338-32-32-32-32 14.338-32 32 14.338 32 32 32z" />
<glyph unicode="&#xe06d;" glyph-name="sink" d="M64 128v64h896v-64c0-105.967-86.033-192-192-192h-512c-105.967 0-192 86.033-192 192zM992 384c17.662 0 32-14.338 32-32v-64c0-17.662-14.338-32-32-32h-960c-17.662 0-32 14.338-32 32v64c0 17.662 14.338 32 32 32h192v64h-128c-17.662 0-32 14.338-32 32v32c0 17.662 14.338 32 32 32h160c35.322 0 64-28.678 64-64v-96h128v376.42c0 92.859 62.58 178.16 153.74 195.859 12.313 2.479 24.902 3.775 37.939 3.775 106.057 0 192.176-86.033 192.32-192.055v-32c0-17.662-14.338-32-32-32h-64c-17.662 0-32 14.338-32 32v32c0 35.322-28.678 64-64 64s-64-28.678-64-64v-384h128v96c0 35.322 28.678 64 64 64h160c17.662 0 32-14.338 32-32v-32c0-17.662-14.338-32-32-32h-128v-64h192z" />
<glyph unicode="&#xe06e;" glyph-name="soap" d="M832 576c105.967 0 192-86.033 192-192v-256c0-105.967-86.033-192-192-192h-640c-105.967 0-192 86.033-192 192v256c0 105.967 86.033 192 192 192h256c0.127-49.256 18.994-94.227 49.82-128h-177.82c-105.967 0-192-86.033-192-192s86.033-192 192-192h384c0.141 0 0.344-0.064 0.484-0.064 105.746 0 191.6 85.854 191.6 191.6 0 82.695-52.502 153.225-125.965 180.045 38.010 34.844 61.807 84.861 61.881 140.42zM640 448c-70.645 0-128 57.355-128 128s57.355 128 128 128 128-57.355 128-128-57.355-128-128-128zM416 768c-52.984 0-96 43.016-96 96s43.016 96 96 96 96-43.016 96-96-43.016-96-96-96zM768 832c-35.322 0-64 28.678-64 64s28.678 64 64 64 64-28.678 64-64-28.678-64-64-64zM320 384h384c70.645 0 128-57.355 128-128s-57.355-128-128-128h-384c-70.645 0-128 57.355-128 128s57.355 128 128 128z" />
<glyph unicode="&#xe06f;" glyph-name="stopwatch-20" horiz-adv-x="896" d="M797 578.18c42.209-64.658 67.002-142.285 67.002-225.192 0-0.33-0.002-0.658-0.002-0.988 0-232-189.74-419.54-422.56-416-227.92 3.561-416.16 201-409.26 428.86 6.203 201.83 156.928 367.87 351.82 398.14v69h-64c-17.637 0.055-31.945 14.363-32 32v64c0.055 17.637 14.363 31.945 32 32h256c17.662 0 32-14.338 32-32v-64c0-17.662-14.338-32-32-32h-64v-69c74.701-11.537 143.498-43.25 199.381-89.18l49.359 49.359c5.793 5.795 13.803 9.381 22.635 9.381s16.832-3.586 22.625-9.381l45.359-45.359c5.795-5.793 9.381-13.803 9.381-22.635s-3.586-16.832-9.381-22.625l-53.18-53.16zM408.74 204.9l-98.26 0.080c3.6 31.26 29.699 72.4 52.82 102.4 43.818 60.199 68.699 91.459 68.699 162.619 0 70.301-25.141 122-111.141 122-95.898 0-112.859-65.881-112.859-120.48v-8.139c0.141-8.932 7.43-16.143 16.393-16.143 0.090 0 0.178 0 0.268 0.002h49.801c0.088-0.002 0.172 0.002 0.262 0.002 8.963 0 16.258 7.207 16.396 16.139v10.459c0 30.561 6.602 45.359 25.381 45.359 20.84 0 24.42-14.699 24.42-48.539 0-50.041-13.359-66.301-54.199-124.68-47.561-67.92-71.34-112.301-76.9-182.74-0.055-0.777-0.090-1.531-0.090-2.322 0-18.17 14.752-32.92 32.92-32.92 0.131 0 0.26 0 0.389 0.002h165.701c0.082-0.002 0.16 0.002 0.242 0.002 8.963 0 16.258 7.207 16.398 16.139v44.619c-0.141 8.93-7.432 16.143-16.395 16.143-0.082 0-0.164-0.002-0.246-0.002zM688 255.359v214.042c0 77.32-38 122.6-111.6 122.6-73.24 0-112.4-44.98-112.4-126.439v-210.66c0-67.861 22.381-126.9 109.539-126.9 89.861 0 114.461 57.039 114.461 127.359zM575.74 516.54c20.020 0 26.039-16.119 26-38.658v-231.88c0-26.539-6.721-42.539-26-42.539s-26.461 14.959-26.461 41.18v231.898c0 25 7.641 40 26.461 40z" />
<glyph unicode="&#xe070;" glyph-name="store-alt-slash" horiz-adv-x="1280" d="M35.779 712.76l176.941-136.76h-148.521c-51.18 0-81.58 57-53.18 99.6zM1152 133.16l115.66-89.359c7.531-5.857 12.342-15.016 12.342-25.285 0-7.389-2.51-14.197-6.723-19.615l-39.279-50.52c-5.855-7.551-15.025-12.375-25.311-12.375-7.395 0-14.207 2.514-19.629 6.734l-1176.702 909.44c-7.531 5.857-12.342 15.016-12.342 25.285 0 7.389 2.51 14.195 6.723 19.615l39.26 50.539c5.857 7.537 15.018 12.354 25.293 12.354 7.395 0 14.205-2.514 19.627-6.732l69.381-53.641 21.318 32c11.428 17.154 30.904 28.4 53.043 28.4h810.538c0.008 0-0.021 0.064-0.014 0.064 22.234 0 41.85-11.299 53.414-28.465l170.58-256c28.221-42.6-2.18-99.6-53.18-99.6h-636.96l82.801-64h106.16v-82l256-198v280h128v-378.84zM640 192v53.76l128-98.939v-146.82c0-35.322-28.678-64-64-64h-512c-35.322 0-64 28.678-64 64v512h128v-320h384z" />
<glyph unicode="&#xe071;" glyph-name="store-slash" horiz-adv-x="1280" d="M243.020 192h453.82l314.66-256h-829.040c-33.621 0-60.801 28.6-60.801 64v393.6c10.041-3.070 20.588-5.521 31.16-7.199 11.258-1.582 22.51-2.395 34.199-2.4 19.314 0.314 38.057 2.951 56 7.6v-199.6zM187.020 448.18c-0.129 0-0.113-0.008-0.242-0.008-8.748 0-17.359 0.59-25.797 1.729-117.881 16.939-174.020 163.219-112.98 270l267.020-217.24c-33.42-33.041-77.799-54.48-128-54.48zM1204.26 43.82c7.197-6.086 11.734-15.199 11.734-25.352 0-7.316-2.375-14.082-6.395-19.568l-37.32-50.52c-5.324-7.498-14.082-12.357-23.971-12.357-7.096 0-13.609 2.521-18.689 6.717l-1117.878 909.44c-7.197 6.086-11.734 15.199-11.734 25.352 0 7.316 2.375 14.082 6.395 19.568l37.32 50.52c5.32 7.496 14.074 12.354 23.957 12.354 7.104 0 13.621-2.527 18.703-6.732l67.379-54.801 18.779 31.561c10.326 17.799 29.477 29.77 51.461 30h767.62c21.996-0.219 41.156-12.193 51.48-30l123.32-207.2c63.881-107.201 7.199-255.98-112.119-272.8-8.561-1.197-17.115-1.813-26-1.82-56.061 0-105.84 26-140.221 66.221-34.221-40.221-84-66.221-140.221-66.221-17.67 0.262-34.771 3.172-50.82 8.281l275.64-224.22v159.359c17.916-4.73 36.658-7.375 56-7.6 11.816 0.014 23.191 0.824 34.58 2.4 10.623 1.516 21.168 3.975 31.141 7.199v-260.42z" />
<glyph unicode="&#xe072;" glyph-name="toilet-paper-slash" horiz-adv-x="1280" d="M128 576c0 21.619 1.061 42.68 2.84 63.34l632-488.5c-8.359-64.4-25.74-115.439-44.359-171.1-8.395-25.4-32.318-43.74-60.518-43.74h-561.962c-17.588 0.086-31.834 14.396-31.834 32.004 0 3.49 0.559 6.85 1.594 9.996 42.74 128.24 62.24 171.5 62.24 253.74v344.26zM1267.64 43.82c7.543-5.857 12.363-15.021 12.363-25.303 0-7.391-2.51-14.197-6.725-19.617l-39.279-50.52c-5.855-7.545-15.021-12.365-25.303-12.365-7.389 0-14.197 2.51-19.617 6.725l-1176.72 909.44c-7.537 5.857-12.352 15.018-12.352 25.293 0 7.395 2.514 14.207 6.732 19.627l39.26 50.52c5.857 7.537 15.018 12.354 25.293 12.354 7.395 0 14.205-2.514 19.627-6.732l106.561-82.301c33.26 55.4 75.859 89.061 122.52 89.061h569c-73.74-77-121-216.76-121-384v-146l100.859-78c-22.859 63.199-36.859 140-36.859 224 0 212 86 384 192 384s192-172 192-384c0-184.641-65.439-337.82-152.359-374.56zM1024 448c35.24 0 64 57.26 64 128s-28.74 128-64 128-64-57.24-64-128 28.74-128 64-128z" />
<glyph unicode="&#xe073;" glyph-name="users-slash" horiz-adv-x="1280" d="M265.3 535.36c-20.789-14.67-46.266-23.367-73.621-23.367-70.469 0-127.68 57.211-127.68 127.68v0.328c0.123 15.617 3.125 30.648 8.42 44.439zM346.18 410.8c-80.4-43.814-137.779-124.283-150.359-218.8h-131.82c-35.322 0-64 28.678-64 64v64c0.066 70.615 57.385 127.934 128 128h128c0.045 0 0.107 0.016 0.154 0.016 35.121 0 66.945-14.221 90.025-37.215zM1088 512c-70.615 0.066-127.934 57.385-128 128 0 70.645 57.355 128 128 128s128-57.355 128-128-57.355-128-128-128zM1001.12 249.779l266.542-205.978c7.531-5.857 12.342-15.016 12.342-25.285 0-7.389-2.51-14.197-6.723-19.615l-39.279-50.541c-5.855-7.541-15.021-12.361-25.301-12.361-7.398 0-14.217 2.518-19.639 6.742l-1176.702 909.44c-7.531 5.857-12.342 15.016-12.342 25.285 0 7.389 2.51 14.195 6.723 19.615l39.26 50.539c5.857 7.537 15.018 12.354 25.293 12.354 7.395 0 14.205-2.514 19.627-6.732l327.88-253.4c13.818 110.5 106.92 196.16 221.2 196.16 0.047 0 0.092 0.002 0.141 0.002 123.551 0 223.86-100.307 223.86-223.86v-0.143c0-94.619-59.080-173.859-142-206.46l110.18-85.199c75.359-13.074 138.197-62.934 168.939-130.561zM256 153.58c0 119.58 91.48 216.76 208 228.16l489.14-378c-7.994-2.316-16.432-3.623-25.141-3.74h-576c-52.984 0-96 43.016-96 96v57.58zM1152 448c70.615-0.066 127.934-57.385 128-128v-64c0-35.322-28.678-64-64-64h-132c-12.438 94.533-69.783 175.029-150.18 218.8 23.080 22.994 54.922 37.199 90.043 37.199h128.137z" />
<glyph unicode="&#xe074;" glyph-name="virus" d="M967.1 504.9c0.361 0.006 0.664 0.010 1.025 0.010 31.404 0 56.9-25.496 56.9-56.9s-25.496-56.9-56.9-56.9c-0.361 0-0.725 0.004-1.086 0.010h-43.078c-101.361 0-152.141-122.559-80.461-194.238l30.5-30.48c9.332-10.137 15.018-23.684 15.018-38.533 0-31.404-25.496-56.9-56.9-56.9-14.852 0-28.381 5.701-38.518 15.033l-30.48 30.461c-71.68 71.68-194.219 20.898-194.219-80.461v-43.039c0-31.404-25.496-56.9-56.9-56.9s-56.9 25.496-56.9 56.9v43.078c0 101.361-122.539 152.141-194.219 80.461l-30.48-30.5c-10.137-9.332-23.684-15.018-38.533-15.018-31.404 0-56.9 25.496-56.9 56.9 0 14.852 5.701 28.381 15.033 38.518l30.461 30.48c71.68 71.68 20.898 194.238-80.461 194.238h-43.1c-0.361-0.006-0.723-0.010-1.086-0.010-31.404 0-56.9 25.496-56.9 56.9s25.496 56.9 56.9 56.9c0.363 0 0.725-0.004 1.086-0.010h43.139c101.361 0 152.141 122.539 80.461 194.219l-30.5 30.5c-9.461 10.16-15.236 23.799-15.236 38.764 0 31.393 25.486 56.881 56.879 56.881 14.971 0 28.598-5.797 38.758-15.264l30.48-30.461c71.68-71.658 194.219-20.898 194.219 80.461v43.119c0 31.404 25.496 56.9 56.9 56.9s56.9-25.496 56.9-56.9v-43.1c0-101.359 122.539-152.119 194.219-80.459l30.48 30.439c10.16 9.467 23.805 15.246 38.773 15.246 31.393 0 56.881-25.486 56.881-56.879 0-14.965-5.793-28.588-15.254-38.748l-30.461-30.5c-71.68-71.68-20.898-194.219 80.461-194.219h43.1zM448 416c52.984 0 96 43.016 96 96s-43.016 96-96 96-96-43.016-96-96 43.016-96 96-96zM608 304c26.492 0 48 21.508 48 48s-21.508 48-48 48-48-21.508-48-48 21.508-48 48-48z" />
<glyph unicode="&#xe075;" glyph-name="virus-slash" horiz-adv-x="1280" d="M228 504.8c19.801 0.199 39.4 5.799 56.199 16l489-378c-42.398-15-76.398-53.602-76.398-106.801v-43c0-31.4-25.4-56.801-56.801-56.801s-57 25.4-57 56.801v43c0 101.4-122.6 152-194.199 80.4l-30.4-30.4c-1-1.199-2.201-2.199-3.201-3.199-23-21.201-59.199-19.801-80.398 3.199-21.201 23-19.801 59 3.199 80.4l30.4 30.6c71.799 71.6 21 194.199-80.4 194.199h-43.199c-31.4 0-56.801 25.4-56.801 56.801s25.4 56.801 56.801 56.801h43.199zM1234-51.6c-10.801-14-31-16.6-44.801-5.801l-1176.798 909.4c-14 11-16.4 31-5.6 45l39.199 50.6c11 14 31 16.4 45 5.6l186.4-144.199c22.199 22.199 58.799 23.199 81 1l30.6-30.4c71.6-71.799 194.199-21 194.199 80.4v43.199c0 31.4 25.4 56.801 56.801 56.801s56.801-25.4 57-57v-43.199c0-101.4 122.6-152 194.199-80.4l30.4 30.4c21.801 20.199 55.4 20.199 77.201 0 23.199-21.4 24.6-57.4 3.199-80.4l-30.4-30.6c-71.799-71.602-21-194.201 80.4-194.201h43c31.4 0 56.801-25.4 56.801-56.799s-25.4-56.801-56.801-56.801h-43c-61 0-102.4-44.199-110.801-95l326.4-252c14-11 16.4-31 5.6-45zM670.8 505c0.199 2.4 1.199 4.6 1 7 0 53-43 96-96 96-10.4-0.199-21-2.199-30.801-5.801z" />
<glyph unicode="&#xe076;" glyph-name="viruses" horiz-adv-x="1280" d="M1248 256c17.662 0 32-14.338 32-32s-14.338-32-32-32h-24.24c-57.020 0-85.58-68.939-45.26-109.26l17.16-17.141c5.793-5.793 9.369-13.803 9.369-22.635 0-17.662-14.34-32.004-32.004-32.004-8.832 0-16.832 3.586-22.625 9.379l-17.141 17.16c-40.32 40.32-109.26 11.76-109.26-45.26v-24.24c0-17.662-14.338-32-32-32s-32 14.338-32 32v24.24c0 57.020-68.939 85.58-109.26 45.26l-17.141-17.16c-5.793-5.793-13.803-9.369-22.635-9.369-17.662 0-32.004 14.34-32.004 32.004 0 8.832 3.586 16.832 9.379 22.625l17.16 17.141c40.32 40.32 11.76 109.26-45.26 109.26h-24.24c-17.662 0-32 14.338-32 32s14.338 32 32 32h24.24c57.020 0 85.58 68.939 45.26 109.26l-17.16 17.141c-5.793 5.793-9.369 13.803-9.369 22.635 0 17.662 14.34 32.004 32.004 32.004 8.832 0 16.832-3.586 22.625-9.379l17.141-17.16c40.32-40.32 109.26-11.76 109.26 45.26v24.24c0 17.662 14.338 32 32 32s32-14.338 32-32v-24.24c0-57.020 68.939-85.58 109.26-45.26l17.141 17.16c5.793 5.793 13.803 9.369 22.635 9.369 17.662 0 32.004-14.34 32.004-32.004 0-8.832-3.586-16.832-9.379-22.625l-17.16-17.141c-40.32-40.32-11.76-109.26 45.26-109.26h24.24zM960 192c35.322 0 64 28.678 64 64s-28.678 64-64 64-64-28.678-64-64 28.678-64 64-64zM693.020 533.34c-76.039 0-114.1-91.92-60.34-145.68l22.859-22.859c7.725-7.725 12.492-18.402 12.492-30.176 0-23.549-19.119-42.668-42.668-42.668-11.773 0-22.439 4.779-30.164 12.504l-22.859 22.859c-53.68 53.76-145.68 15.66-145.68-60.34v-32.32c0-23.545-19.115-42.66-42.66-42.66s-42.66 19.115-42.66 42.66v32.32c0 76.039-91.92 114.1-145.68 60.34l-22.859-22.859c-7.725-7.725-18.402-12.492-30.176-12.492-23.549 0-42.668 19.119-42.668 42.668 0 11.773 4.779 22.439 12.504 30.164l22.859 22.859c53.76 53.68 15.66 145.68-60.34 145.68h-32.32c-23.545 0-42.66 19.115-42.66 42.66s19.115 42.66 42.66 42.66h32.32c76.039 0 114.1 91.92 60.34 145.68l-22.859 22.881c-7.66 7.713-12.381 18.344-12.381 30.062 0 23.545 19.115 42.66 42.66 42.66 11.721 0 22.346-4.738 30.061-12.404l22.859-22.859c53.68-53.76 145.68-15.66 145.68 60.34v32.32c0 23.545 19.115 42.66 42.66 42.66s42.66-19.115 42.66-42.66v-32.32c0-76.039 91.92-114.1 145.68-60.34l22.859 22.859c7.715 7.666 18.352 12.391 30.072 12.391 23.545 0 42.66-19.115 42.66-42.658 0-11.719-4.732-22.338-12.393-30.051l-22.859-22.881c-53.76-53.68-15.66-145.68 60.34-145.68h32.32c23.545 0 42.66-19.115 42.66-42.66s-19.115-42.66-42.66-42.66h-32.32zM320 576c35.322 0 64 28.678 64 64s-28.678 64-64 64-64-28.678-64-64 28.678-64 64-64zM480 512c17.662 0 32 14.338 32 32s-14.338 32-32 32-32-14.338-32-32 14.338-32 32-32z" />
<glyph unicode="&#xe085;" glyph-name="vest" horiz-adv-x="896" d="M874.504 480.246c13.531-20.297 21.496-44.799 21.496-71v-409.246c0-35.322-28.678-64-64-64h-384v448l147.623 442.876c-43.539-24.656-94.127-39.041-147.623-39.346-53.496 0.301-104.084 14.686-147.623 39.34l113.893-341.672-26.984-80.961c-2.119-6.359-3.285-13.17-3.285-20.238v-448h-320c-35.322 0-64 28.678-64 64v409.246c0 26.201 7.965 50.703 21.496 71l106.504 159.754v256c0 35.322 28.678 64 64 64h64c9.824-0.004 19.012-2.99 26.623-8.063l50-33.344c32.963-22.037 72.994-34.893 115.586-34.893s82.205 12.855 115.168 34.893l50 33.344c7.611 5.072 16.799 8.059 26.623 8.063h64c35.322 0 64-28.678 64-64v-256zM262.624 217.377c5.563 5.758 8.977 13.602 8.977 22.23 0 17.662-14.34 32-32 32-8.629 0-16.465-3.422-22.223-8.984l-96-96c-5.563-5.758-8.977-13.602-8.977-22.23 0-17.662 14.34-32 32-32 8.629 0 16.465 3.422 22.223 8.984zM774.624 121.377c5.795 5.789 9.381 13.797 9.381 22.627s-3.586 16.83-9.381 22.619l-96 96c-5.758 5.563-13.602 8.977-22.23 8.977-17.662 0-32-14.34-32-32 0-8.629 3.422-16.465 8.984-22.223l96-96c5.789-5.795 13.797-9.381 22.627-9.381s16.83 3.586 22.619 9.381z" />
<glyph unicode="&#xe086;" glyph-name="vest-patches" horiz-adv-x="896" d="M874.504 480.246c13.531-20.297 21.496-44.799 21.496-71v-409.246c0-35.322-28.678-64-64-64h-384v448l147.621 442.868c-43.541-24.65-94.127-39.031-147.621-39.336-53.494 0.309-104.082 14.693-147.623 39.348l113.893-341.68-26.984-80.961c-2.119-6.359-3.285-13.17-3.285-20.238v-448h-320c-35.322 0-64 28.678-64 64v409.246c0 26.201 7.965 50.703 21.496 71l106.504 159.754v256c0 35.322 28.678 64 64 64l64.057-0.029c9.822 0 18.959-2.959 26.566-8.033l50-33.344c32.963-22.037 72.994-34.893 115.586-34.893s82.205 12.855 115.168 34.893l50 33.344c7.607 5.074 16.791 8.063 26.613 8.063h64.010c35.322 0 64-28.678 64-64v-256zM127 415.032l31.031-31.031-31.031-31.031c-4.248-4.334-6.861-10.275-6.861-16.816 0-13.258 10.762-24.021 24.020-24.021 6.559 0 12.506 2.635 16.842 6.9l31 31 31-31c4.336-4.266 10.291-6.893 16.848-6.893 13.258 0 24.021 10.764 24.021 24.020 0 6.541-2.621 12.477-6.869 16.811l-31.031 31.031 31.031 31.031c4.248 4.334 6.861 10.275 6.861 16.816 0 13.258-10.762 24.021-24.020 24.021-6.559 0-12.506-2.635-16.842-6.9l-31-31-31 31c-4.336 4.266-10.291 6.893-16.848 6.893-13.258 0-24.021-10.764-24.021-24.020 0-6.541 2.621-12.477 6.869-16.811zM192 48c44.152 0 80 35.848 80 80s-35.848 80-80 80-80-35.848-80-80 35.848-80 80-80zM718.454 288.43c27.375 0.193 49.547 22.428 49.547 49.846 0 1.516-0.068 3.014-0.199 4.494-2.328 25.602-25.148 44.223-50.801 44.152l-10.102-0.074 0.074 10.115c0.145 25.6-18.535 48.514-44.113 50.838-1.484 0.133-2.939 0.189-4.459 0.189-27.402 0-49.684-22.105-49.971-49.441l-0.43-97.148c0-0.020-0.002-0.039-0.002-0.059 0-7.363 5.979-13.342 13.342-13.342h0.061z" />
<glyph unicode="&#xe900;" glyph-name="web_icons-69" d="M510.745 625.246c-58.846-0.074-106.521-47.795-106.521-106.65 0-58.901 47.749-106.65 106.65-106.65 58.871 0 106.601 47.7 106.65 106.559v0.005c0 58.949-47.788 106.737-106.737 106.737-0.015 0-0.030 0-0.046 0h0.002zM510.745 447.524c-39.22 0.074-70.985 31.885-70.985 71.115 0 39.276 31.839 71.115 71.115 71.115s71.115-31.839 71.115-71.115c0-0.046 0-0.091 0-0.137v0.007c-0.098-39.225-31.919-70.985-71.158-70.985-0.031 0-0.061 0-0.092 0h0.005zM208.756 625.246c0.013 0 0.028 0 0.043 0 58.901 0 106.65 47.749 106.65 106.65s-47.749 106.65-106.65 106.65c-58.901 0-106.65-47.749-106.65-106.65 0-0.015 0-0.030 0-0.046v0.002c0.074-58.848 47.759-106.533 106.6-106.607h0.007zM208.756 802.968c0.013 0 0.028 0 0.043 0 39.276 0 71.115-31.839 71.115-71.115s-31.839-71.115-71.115-71.115c-39.276 0-71.115 31.839-71.115 71.115v0c0.049 39.241 31.834 71.041 71.064 71.115h0.007zM813.036 625.246c58.901 0 106.65 47.749 106.65 106.65s-47.749 106.65-106.65 106.65c-58.901 0-106.65-47.749-106.65-106.65 0-0.015 0-0.030 0-0.046v0.002c0.074-58.863 47.784-106.558 106.646-106.607h0.005zM813.036 802.968c39.276 0 71.115-31.839 71.115-71.115s-31.839-71.115-71.115-71.115c-39.276 0-71.115 31.839-71.115 71.115v0c0.049 39.256 31.859 71.065 71.11 71.115h0.005zM953.578 608.452c-11.47 3.896-45.88 15.798-45.88 15.798-1.716 0.608-3.696 0.96-5.757 0.96-4.945 0-9.418-2.023-12.636-5.286l-0.002-0.002-76.265-76.179-76.309 76.309c-52.268 68.367-133.865 112.025-225.658 112.025s-173.39-43.658-225.157-111.343l-0.501-0.682-76.655-76.309-76.265 76.309c-3.22 3.265-7.693 5.288-12.638 5.288-2.062 0-4.041-0.352-5.882-0.998l0.124 0.038s-34.41-11.903-45.924-15.798c-33.848-11.427-54.883-38.955-54.883-72.067v-53.325c0.049-39.232 31.84-71.022 71.067-71.071h144.658c17.748-141.042 136.944-249.048 281.366-249.048 54.555 0 105.51 15.411 148.749 42.118l-1.22-0.701 142.835-142.835c3.211-3.209 7.646-5.194 12.545-5.194 0.018 0 0.036 0 0.053 0h-0.003c49.038 0.074 88.768 39.819 88.818 88.856v0.005c0 0.008 0 0.016 0 0.025 0 4.893-1.985 9.322-5.194 12.527v0l-142.835 142.835c19.738 31.89 33.526 69.534 38.803 109.857l0.152 1.425h144.653c39.102 0.221 70.72 31.946 70.768 71.067v53.33c0 33.025-21.036 60.64-54.927 72.067zM226.416 447.524h-142.056c-19.616 0.025-35.511 15.92-35.536 35.533v53.327c0 25.321 21.642 35.276 30.688 38.392 7.488 2.51 24.542 8.397 35.709 12.249l80.983-80.983c3.223-3.206 7.667-5.187 12.574-5.187s9.35 1.982 12.575 5.188l-0.001-0.001 15.236 15.279c-6.274-22.102-9.933-47.5-10.042-73.736v-0.062zM670.72 257.077c-42.873-36.362-98.831-58.473-159.954-58.473s-117.081 22.111-160.313 58.77l0.359-0.297v66.051c0 25.321 21.642 35.276 30.688 38.392 7.488 2.51 24.542 8.397 35.709 12.249l80.983-80.983c3.223-3.206 7.667-5.187 12.574-5.187s9.35 1.982 12.575 5.188l80.982 80.982c11.167-3.852 28.221-9.739 35.666-12.249 9.219-3.116 30.731-12.985 30.731-38.392zM865.756 138.35c-3.266-23.958-22.009-42.701-45.69-45.936l-0.278-0.031-132.491 132.491c17.152 13.732 32.235 28.815 45.526 45.398l0.441 0.569zM706.256 294.171v29c0 33.025-21.036 60.597-54.927 72.067-11.47 3.896-45.88 15.798-45.88 15.798-1.713 0.604-3.689 0.953-5.746 0.953-4.948 0-9.424-2.020-12.648-5.28l-0.002-0.002-76.309-76.222-76.265 76.265c-3.22 3.265-7.693 5.288-12.638 5.288-2.062 0-4.041-0.352-5.882-0.998l0.124 0.038s-34.627-11.903-45.924-15.798c-33.848-11.427-54.883-38.955-54.883-72.067v-29c-33.253 41.922-53.347 95.594-53.347 153.959 0 137.429 111.408 248.837 248.837 248.837s248.837-111.408 248.837-248.837c0-58.365-20.094-112.037-53.741-154.475l0.395 0.516zM972.839 483.103c-0.025-19.616-15.92-35.511-35.533-35.536h-142.059c-0.109 26.298-3.768 51.696-10.521 75.801l0.479-2.003 15.236-15.279c3.223-3.206 7.667-5.187 12.574-5.187s9.35 1.982 12.575 5.188l80.982 80.982c11.167-3.852 28.221-9.739 35.666-12.249 9.219-3.116 30.731-12.985 30.731-38.392z" />
<glyph unicode="&#xe901;" glyph-name="web_icons-70" d="M510.745 650.307c0.051 0 0.112 0 0.173 0 66.36 0 120.155 53.795 120.155 120.155s-53.795 120.155-120.155 120.155c-66.36 0-120.155-53.795-120.155-120.155 0-0.015 0-0.030 0-0.045v0.002c0-66.29 53.702-120.038 119.975-120.112h0.007zM510.745 856.12c0.051 0 0.112 0 0.173 0 47.403 0 85.831-38.428 85.831-85.831s-38.428-85.831-85.831-85.831c-47.403 0-85.831 38.428-85.831 85.831 0 0.046 0 0.091 0 0.137v-0.007c0.171 47.247 38.414 85.505 85.639 85.701h0.019zM201.917 238.335c0.013 0 0.028 0 0.043 0 66.36 0 120.155 53.795 120.155 120.155s-53.795 120.155-120.155 120.155c-66.36 0-120.155-53.795-120.155-120.155 0-0.046 0-0.091 0-0.137v0.007c0.074-66.289 53.816-120 120.109-120.025h0.002zM201.917 444.321c47.403 0 85.831-38.428 85.831-85.831s-38.428-85.831-85.831-85.831c-47.358 0-85.757 38.354-85.831 85.694v0.007c0 0.013 0 0.028 0 0.043 0 47.421 38.417 85.868 85.826 85.918h0.005zM972.709 222.147l-45.751 15.322c-1.614 0.549-3.473 0.866-5.406 0.866-3.602 0-6.947-1.1-9.717-2.982l0.060 0.039-92.064-62.155-92.064 62.155c-2.71 1.843-6.055 2.943-9.657 2.943-1.933 0-3.792-0.317-5.528-0.901l0.122 0.036-43.024-14.37-141.623 125.912v129.634h171.662c0.010 0 0.022 0 0.035 0 4.722 0 8.996 1.919 12.084 5.020l0.001 0.001c3.087 3.111 5 7.39 5.021 12.115v64.929c-0.032 34.085-22.033 63.023-52.605 73.42l-0.547 0.161-45.707 15.279c-1.614 0.549-3.473 0.866-5.406 0.866-3.602 0-6.947-1.1-9.717-2.982l0.060 0.039-92.194-62.328-91.934 62.155c-2.71 1.843-6.055 2.943-9.657 2.943-1.933 0-3.792-0.317-5.528-0.901l0.122 0.036-45.794-15.322c-31.070-10.576-53.022-39.498-53.022-73.548 0-0.012 0-0.024 0-0.036v0.002-64.925c0-9.562 7.751-17.313 17.313-17.313v0h171.662v-129.591l-141.71-125.955-42.98 14.37c-1.614 0.549-3.473 0.866-5.406 0.866-3.602 0-6.947-1.1-9.717-2.982l0.060 0.039-92.237-61.765-92.064 62.155c-2.71 1.843-6.055 2.943-9.657 2.943-1.933 0-3.792-0.317-5.528-0.901l0.122 0.036-45.794-15.322c-31.068-10.561-53.022-39.475-53.022-73.517 0-0.023 0-0.046 0-0.069v0.004-64.709c0.008-4.745 1.924-9.041 5.022-12.164l-0.001 0.001c3.072-3.064 7.308-4.963 11.987-4.978h377.781c9.562 0 17.313 7.751 17.313 17.313v0 64.536c-0.119 22.191-9.533 42.159-24.543 56.229l-0.042 0.039 127.253 113.533 127.556-113.359c-15.040-14.113-24.44-34.083-24.542-56.25v-64.728c0.008-4.745 1.924-9.041 5.022-12.164l-0.001 0.001c3.069-3.101 7.326-5.021 12.031-5.021 0.031 0 0.062 0 0.093 0h377.6c4.751 0.021 9.047 1.952 12.163 5.064v0c3.101 3.082 5.021 7.35 5.021 12.067 0 0.018 0 0.037 0 0.055v-0.003 64.536c-0.006 34.044-21.932 62.966-52.433 73.419l-0.546 0.163zM373.58 100.953h-343.281v47.612c0.028 18.971 12.256 35.079 29.258 40.899l0.305 0.091 37.786 12.639 94.661-63.93c2.7-1.824 6.027-2.911 9.609-2.911s6.909 1.088 9.67 2.95l-0.061-0.039 94.661 63.886 37.786-12.595c17.338-5.901 29.591-22.034 29.606-41.031v-0.002zM339.212 512.882v47.612c0.008 18.989 12.243 35.117 29.258 40.942l0.305 0.091 37.83 12.639 94.661-63.93c2.7-1.824 6.027-2.911 9.609-2.911s6.909 1.088 9.67 2.95l-0.061-0.039 94.661 63.93 37.786-12.595c17.348-5.905 29.606-22.054 29.606-41.066 0-0.004 0-0.007 0-0.011v0.001-47.612zM648.17 100.953v47.612c0.015 18.999 12.268 35.132 29.301 40.942l0.305 0.090 37.786 12.639 94.661-63.93c2.7-1.824 6.027-2.911 9.609-2.911s6.909 1.088 9.67 2.95l-0.061-0.039 94.618 63.886 37.83-12.595c17.338-5.901 29.591-22.034 29.606-41.031v-47.614zM819.832 238.248c0.013 0 0.028 0 0.043 0 66.36 0 120.155 53.795 120.155 120.155s-53.795 120.155-120.155 120.155c-66.36 0-120.155-53.795-120.155-120.155 0-0.015 0-0.031 0-0.046v0.003c0.099-66.279 53.826-119.976 120.107-120.025h0.005zM819.832 444.234c47.403 0 85.831-38.428 85.831-85.831s-38.428-85.831-85.831-85.831c-47.388 0-85.806 38.403-85.831 85.785v0.002c0 0.026 0 0.056 0 0.087 0 47.412 38.423 85.85 85.829 85.874h0.002z" />
<glyph unicode="&#xe902;" glyph-name="web_icons-71" d="M200.186 668.183c60.79 0 110.070 49.28 110.070 110.070s-49.28 110.070-110.070 110.070c-60.79 0-110.070-49.28-110.070-110.070 0-0.015 0-0.030 0-0.046v0.002c0.025-60.771 49.295-110.027 110.070-110.027v0zM200.186 851.618c40.638 0 73.582-32.944 73.582-73.582s-32.944-73.582-73.582-73.582c-40.638 0-73.582 32.944-73.582 73.582v0c0 0.051 0 0.112 0 0.173 0 40.638 32.944 73.582 73.582 73.582 0 0 0 0 0 0v0zM567.013 558.113c0.026 0 0.056 0 0.087 0 50.63 0 91.674 41.044 91.674 91.674 0 0.015 0 0.030 0 0.046v-0.002c0 0.013 0 0.028 0 0.044 0 10.066-8.123 18.235-18.172 18.308h-348.699c-5.068-0.006-9.656-2.055-12.986-5.368l-78.775-78.775-78.776 78.776c-3.287 3.313-7.842 5.364-12.875 5.364-2.165 0-4.241-0.379-6.166-1.075l0.126 0.040-47.612-16.361c-33.11-11.355-56.485-42.217-56.485-78.539 0-0.022 0-0.045 0-0.067v0.003-215.941c0.025-44.215 31.333-81.11 72.987-89.753l0.594-0.103v-240.353c0.024-10.048 8.138-18.192 18.172-18.266h220.147c0.013 0 0.028 0 0.043 0 10.112 0 18.309 8.197 18.309 18.309 0 0.015 0 0.030 0 0.046v-0.002 495.293c0.049 20.252 16.453 36.655 36.7 36.704h0.005zM291.86 521.409v-477.070h-73.582v238.535c0 10.136-8.217 18.352-18.352 18.352s-18.352-8.217-18.352-18.352v0-238.535h-73.582v458.805c0.014 0.266 0.022 0.578 0.022 0.891 0 10.136-8.217 18.352-18.352 18.352s-18.352-8.217-18.352-18.352c0-0.313 0.008-0.625 0.023-0.934l-0.002 0.043v-198.671c-21.568 7.801-36.704 28.102-36.704 51.938 0 0.001 0 0.001 0 0.002v0 215.768c0.011 20.303 13.084 37.55 31.271 43.792l0.326 0.097 36.921 12.682 84.056-83.624c3.327-3.315 7.916-5.365 12.985-5.365s9.658 2.050 12.986 5.366v0l86.567 86.567h319.215c-7.774-21.589-28.078-36.748-51.923-36.748-0.006 0-0.012 0-0.018 0h-201.7c-0.026 0-0.056 0-0.087 0-40.471 0-73.279-32.808-73.279-73.279 0-0.091 0-0.183 0.001-0.274v0.014zM1020.451 846.294c-3.322 3.291-7.895 5.324-12.943 5.324-0.015 0-0.029 0-0.044 0h-660.504c-0.266 0.014-0.578 0.022-0.891 0.022-10.136 0-18.352-8.217-18.352-18.352s8.217-18.352 18.352-18.352c0.313 0 0.625 0.008 0.934 0.023l-0.043-0.002h642.153v-36.748h-605.449c-10.136 0-18.352-8.217-18.352-18.352s8.217-18.352 18.352-18.352v0h568.571v-440.279h-568.571c-10.136 0-18.352-8.217-18.352-18.352s8.217-18.352 18.352-18.352h238.535v-84.1l-141.45-141.407c-3.323-3.323-5.379-7.914-5.379-12.985 0-10.142 8.222-18.364 18.364-18.364 5.071 0 9.662 2.055 12.985 5.379l115.48 115.48v-102.495c-0.014-0.266-0.022-0.578-0.022-0.891 0-10.136 8.217-18.352 18.352-18.352s18.352 8.217 18.352 18.352c0 0.313-0.008 0.625-0.023 0.934l0.002-0.043v102.452l115.437-115.437c3.323-3.323 7.914-5.379 12.985-5.379 10.142 0 18.364 8.222 18.364 18.364 0 5.071-2.055 9.662-5.379 12.985l-141.45 141.45v84.056h311.944c0 0 0 0 0 0 10.112 0 18.309 8.197 18.309 18.309 0 0.015 0 0.030 0 0.046v-0.002 458.805h18.352c10.080 0.048 18.25 8.157 18.395 18.209v73.596c-0.054 5.005-2.094 9.523-5.368 12.813l0.001-0.001z" />
<glyph unicode="&#xe903;" glyph-name="web_icons-72" d="M582.336 159.689h-166.555c-19.459 0-35.233 15.774-35.233 35.233v489.925c0 19.459 15.774 35.233 35.233 35.233h166.555c19.459 0 35.233-15.774 35.233-35.233v-489.925c0-19.459-15.774-35.233-35.233-35.233zM914.493 159.646h-166.555c-19.459 0-35.233 15.774-35.233 35.233v652.758c0 19.459 15.774 35.233 35.233 35.233h166.555c19.459 0 35.233-15.774 35.233-35.233v-652.758c0-19.459-15.774-35.233-35.233-35.233zM258.662 159.689h-166.555c-19.459 0-35.233 15.774-35.233 35.233v319.648c0 19.459 15.774 35.233 35.233 35.233h166.555c19.459 0 35.233-15.774 35.233-35.233v-319.648c0-19.459-15.774-35.233-35.233-35.233zM39.215 13.088h945.744c22.566 0 40.86 18.293 40.86 40.86s-18.293 40.86-40.86 40.86h-945.744c-22.566 0-40.86-18.293-40.86-40.86s18.293-40.86 40.86-40.86v0z" />
<glyph unicode="&#xe904;" glyph-name="web_icons-73" d="M356.136 259.847c46.543-108.551 152.489-183.207 275.871-183.207 165.302 0 299.305 134.003 299.305 299.305s-134.003 299.305-299.305 299.305c-105.568 0-198.371-54.654-251.656-137.211l-0.712-1.178-2.034-3.16-3.679 0.693c-0.89 0.178-1.92 0.287-2.973 0.303h-123.068c-9.251 0-16.751-7.5-16.751-16.751s7.5-16.751 16.751-16.751h111.974l-3.333-7.791c-9.857-22.423-17.29-48.458-21.034-75.67l-0.174-1.548-0.649-4.804h-309.347c-8.901-0.466-15.942-7.797-15.942-16.772s7.041-16.306 15.9-16.771l0.041-0.002h307.313v-5.497c0.212-24.542 3.357-48.251 9.099-70.924l-0.442 2.060 1.775-6.925h-230.528c-0.36 0.028-0.78 0.043-1.203 0.043-9.251 0-16.751-7.5-16.751-16.751s7.5-16.751 16.751-16.751c0.423 0 0.843 0.016 1.259 0.047l-0.055-0.003h242.387zM631.592 641.867c0.021 0 0.045 0 0.070 0 146.68 0 265.587-118.907 265.587-265.587s-118.907-265.587-265.587-265.587c-109.055 0-202.758 65.729-243.654 159.733l-0.665 1.715-0.779 1.775 0.519 1.861c0.357 1.291 0.577 2.777 0.606 4.311v0.017c-0.020 5.713-2.888 10.751-7.259 13.771l-0.056 0.037-1.601 1.082-0.563 1.861c-7.729 23.769-12.186 51.12-12.186 79.512 0 146.632 118.869 265.501 265.501 265.501 0.023 0 0.047 0 0.070 0h-0.004zM916.657 633.253l-3.722 4.328 25.97 23.676 25.407-26.533c2.996-3.031 7.136-4.925 11.72-4.978h0.4c0.091-0.002 0.197-0.003 0.304-0.003 9.009 0 16.326 7.243 16.446 16.223v0.011c0.003 0.125 0.005 0.272 0.005 0.42 0 4.484-1.785 8.552-4.684 11.53l0.004-0.004-73.192 76.352c-3.056 3.183-7.346 5.161-12.098 5.161-9.257 0-16.76-7.504-16.76-16.76 0-4.505 1.777-8.594 4.668-11.606l24.753-25.964-26.879-24.325-3.722 3.29c-61.904 54.791-142.224 90.047-230.61 95.473l-1.086 0.053-5.281 0.303v33.761h66.18c0.077-0.001 0.168-0.002 0.26-0.002 9.251 0 16.751 7.5 16.751 16.751 0 0.001 0 0.001 0 0.002v0 76.568c0 0 0 0.001 0 0.001 0 9.251-7.5 16.751-16.751 16.751-0.076 0-0.152-0.001-0.228-0.002h-165.85c-9.241-0.025-16.726-7.509-16.751-16.748v-76.57c0.025-9.241 7.509-16.726 16.748-16.751h66.182v-33.761l-5.237-0.303c-113.933-6.72-213.682-62.227-279.466-145.74l-0.621-0.818h43.889c64.314 70.030 156.306 113.765 258.512 113.765 193.629 0 350.596-156.967 350.596-350.596s-156.967-350.596-350.596-350.596c-118.952 0-224.068 59.24-287.455 149.826l-0.75 1.131h-39.864c68.551-111.128 189.626-184.083 327.74-184.083 211.964 0 383.794 171.831 383.794 383.794 0 98.994-37.48 189.234-99.023 257.305l0.296-0.332zM565.412 827.163v43.283h132.361v-43.283zM630.294 312.133c0.051 0 0.111 0 0.171 0 37.937 0 68.691 30.754 68.691 68.691 0 5.293-0.599 10.445-1.732 15.394l0.089-0.461-0.866 4.025 3.549 1.991 109.68 63.627c5.034 2.952 8.361 8.337 8.361 14.498 0 3.093-0.838 5.991-2.3 8.477l0.043-0.079c-2.969 5.008-8.346 8.313-14.495 8.313-3.094 0-5.992-0.837-8.481-2.296l0.079 0.043-113.186-65.574-3.030 2.77c-12.222 11.295-28.627 18.222-46.649 18.222-38.009 0-68.821-30.812-68.821-68.821s30.812-68.821 68.821-68.821c0.027 0 0.053 0 0.080 0h-0.004zM630.294 416.36c0.013 0 0.028 0 0.043 0 19.53 0 35.363-15.832 35.363-35.363s-15.832-35.363-35.363-35.363c-19.53 0-35.363 15.832-35.363 35.363 0 0 0 0 0 0v0c0.025 19.505 15.818 35.313 35.315 35.363h0.005z" />
<glyph unicode="&#xe905;" glyph-name="web_icons-74" d="M677.862 954.027c-0.054 0-0.119 0-0.183 0-192.051 0-347.739-155.688-347.739-347.739 0-56.893 13.663-110.594 37.886-158.003l-0.912 1.966-61.419-61.592 24.931-24.931-332.071-276.538 145.216-145.216 282.728 326.011 22.248-22.204 57.87 57.783c49.335-28.475 108.51-45.274 171.608-45.274 192.123 0 347.869 155.746 347.869 347.869s-155.746 347.869-347.869 347.869c-0.057 0-0.114 0-0.172 0h0.009zM141.667-5.221l-89.727 89.943 10.691 8.916 88.861-87.562zM175.038 33.258l-84.489 83.667 264.029 219.837 44.842-44.842zM448.546 296.681l-91.934 91.977 15.625 15.885 91.891-91.891zM677.949 294.084c-172.115 0-311.641 139.526-311.641 311.641s139.526 311.641 311.641 311.641c172.115 0 311.641-139.526 311.641-311.641v0c-0.394-171.943-139.761-311.203-311.706-311.424h-0.021zM678.641 839.282c-0.021 0-0.045 0-0.070 0-29.418 0-57.556-5.478-83.45-15.47l1.584 0.538v-39.172c24.070 11.306 52.273 17.904 82.018 17.904 108.695 0 196.81-88.115 196.81-196.81 0-23.048-3.962-45.171-11.242-65.724l0.425 1.377h37.916c5.772 19.306 9.095 41.49 9.095 64.449 0 128.632-104.277 232.908-232.908 232.908-0.063 0-0.125 0-0.188 0h0.010z" />
<glyph unicode="&#xe906;" glyph-name="web_icons-75" d="M963.273 126.967l-338.606 338.563 101.197 101.197c19.862-8.471 42.969-13.396 67.226-13.396 96.862 0 175.385 78.522 175.385 175.385 0 18.198-2.771 35.748-7.915 52.252l0.334-1.242c-2.26 7.248-8.91 12.417-16.768 12.417-4.911 0-9.35-2.019-12.532-5.272l-0.003-0.003-91.891-91.674-67.046 13.418-13.418 67.046 91.891 91.847c3.164 3.177 5.119 7.559 5.119 12.398 0 7.888-5.197 14.562-12.353 16.785l-0.124 0.033c-15.124 4.778-32.518 7.532-50.555 7.532-0.122 0-0.243 0-0.365 0h0.019c-0.082 0-0.178 0-0.274 0-96.767 0-175.211-78.445-175.211-175.211 0-24.239 4.922-47.329 13.822-68.325l-0.432 1.148-153.786-153.916-228.104 228.104v62.934c-0.057 5.424-2.562 10.251-6.461 13.436l-0.032 0.025-105.136 87.779c-3.026 2.523-6.956 4.054-11.243 4.054-4.853 0-9.248-1.962-12.434-5.137l-52.632-52.632c-3.174-3.186-5.136-7.58-5.136-12.433 0-4.287 1.531-8.217 4.077-11.271l-0.023 0.028 87.779-105.222c3.245-3.848 8.069-6.276 13.461-6.276 0.015 0 0.031 0 0.046 0h62.889l228.147-228.147-153.829-153.916c-19.718 8.484-42.672 13.418-66.777 13.418-0.079 0-0.158 0-0.238 0h0.012c-96.938-0.027-175.511-78.616-175.511-175.558 0-18.142 2.752-35.64 7.861-52.102l-0.333 1.244c2.257-7.281 8.93-12.477 16.818-12.477 4.839 0 9.221 1.956 12.399 5.12l91.846 91.89 67.046-13.418 13.418-67.089-91.761-91.847c-3.164-3.177-5.119-7.559-5.119-12.398 0-7.888 5.197-14.562 12.353-16.785l0.124-0.033c15.125-4.739 32.518-7.475 50.548-7.488h0.396c0.030 0 0.066 0 0.101 0 96.814 0 175.298 78.484 175.298 175.298 0 24.206-4.906 47.266-13.778 68.24l0.432-1.15 101.153 101.197 338.563-338.606c3.176-3.156 7.553-5.107 12.386-5.107 0.013 0 0.025 0 0.038 0h-0.002c0.055-0.001 0.12-0.001 0.185-0.001 1.472 0 2.899 0.19 4.26 0.546l-0.117-0.026c1.385 0.519 44.149 10.128 76.395 41.855s41.292 75.010 41.855 76.352c0.282 1.181 0.443 2.538 0.443 3.932 0 4.978-2.060 9.475-5.373 12.685l-0.005 0.004zM213.777 746.31h-44.452l-72.24 86.567 29.995 29.995 86.567-72.24zM664.271 645.546c3.182 3.18 5.151 7.575 5.151 12.43 0 2.869-0.688 5.578-1.907 7.97l0.046-0.1c-9.553 18.437-15.154 40.248-15.154 63.368 0 77.356 62.709 140.065 140.065 140.065 0.215 0 0.43 0 0.644-0.001h-0.033c3.333 0 6.622 0 9.869-0.346l-75.14-75.097c-3.263-3.193-5.286-7.642-5.286-12.564 0-1.159 0.112-2.293 0.327-3.389l-0.018 0.111 17.573-87.736c1.418-6.966 6.805-12.368 13.65-13.788l0.114-0.020 87.779-17.313c1.054-0.228 2.266-0.359 3.508-0.359 4.827 0 9.192 1.975 12.332 5.161l74.969 74.969c0.216-3.29 0.346-6.579 0.346-9.955 0-0.054 0-0.119 0-0.183 0-77.428-62.767-140.195-140.195-140.195-23.067 0-44.832 5.571-64.025 15.44l0.787-0.368c-2.307 1.191-5.036 1.89-7.928 1.89-4.847 0-9.236-1.963-12.415-5.136v0l-109.464-110.027-45.361 45.448zM359.945 250.454c-3.191-3.182-5.165-7.582-5.165-12.444 0-2.881 0.693-5.599 1.922-7.998l-0.046 0.099c9.494-18.27 15.063-39.892 15.063-62.815 0-0.042 0-0.084 0-0.126v0.007c-0.123-77.474-62.894-140.245-140.356-140.368h-0.012c-3.376 0-6.666 0-9.955 0.346l74.967 75.010c3.174 3.186 5.137 7.581 5.137 12.434 0 1.206-0.121 2.383-0.352 3.521l0.019-0.113-17.313 87.736c-1.439 6.959-6.841 12.346-13.694 13.745l-0.113 0.019-87.952 17.66c-1.029 0.214-2.211 0.336-3.422 0.336-4.85 0-9.24-1.964-12.42-5.141v0l-74.967-75.097c-0.26 3.29-0.39 6.579-0.39 9.912 0 0.119-0.001 0.259-0.001 0.399 0 77.428 62.767 140.195 140.195 140.195 23.067 0 44.832-5.571 64.025-15.44l-0.787 0.368c2.309-1.218 5.046-1.933 7.95-1.933 4.835 0 9.206 1.982 12.348 5.177l0.002 0.002 109.55 109.68 45.361-45.404zM926.266 97.794c-11.476-29.605-34.454-52.584-63.306-63.802l-0.754-0.258c-4.328-1.991-8.657-3.463-11.86-4.631l-401.324 401.324 80.464 80.464 401.367-401.324c-0.996-3.29-2.467-7.272-4.588-11.773zM517.107 418.091l333.283-333.283c3.147-3.001 7.417-4.848 12.119-4.848 9.705 0 17.573 7.868 17.573 17.573 0 4.702-1.847 8.973-4.854 12.126l-333.276 333.276c-3.181 3.175-7.572 5.139-12.422 5.139-9.711 0-17.583-7.872-17.583-17.583 0-4.861 1.972-9.261 5.161-12.444v0z" />
<glyph unicode="&#xe907;" glyph-name="web_icons-76" d="M546.627 378.963c142.998 0 258.922 115.923 258.922 258.922s-115.923 258.922-258.922 258.922c-142.998 0-258.922-115.923-258.922-258.922 0-0.015 0-0.031 0-0.046v0.002c0-142.975 115.904-258.878 258.878-258.878 0.015 0 0.031 0 0.046 0h-0.002zM621.507 426.575c9.705 11.235 18.335 23.872 25.448 37.429l0.522 1.093c10.236 19.854 18.868 42.935 24.709 67.105l0.439 2.149h72.889c-26.543-50.010-69.93-88.119-122.442-107.235l-1.565-0.498zM771.008 637.798c-0.060-24.696-4.094-48.43-11.496-70.623l0.459 1.586h-80.421c3.333 20.756 5.237 44.685 5.237 69.059s-1.904 48.303-5.572 71.646l0.335-2.588h80.507c6.915-20.614 10.92-44.353 10.951-69.022v-0.015zM745.471 741.375h-72.933c-6.28 26.319-14.912 49.4-25.973 71.032l0.826-1.778c-7.654 14.648-16.282 27.283-26.191 38.784l0.22-0.262c54.095-19.604 97.498-57.715 123.46-106.517l0.59-1.216zM563.897 850.363c18.439-7.055 37.267-25.624 52.849-55.663 7.888-15.185 14.792-32.896 19.78-51.394l0.434-1.888h-73.062zM563.897 706.922h80.594c3.608-20.761 5.67-44.669 5.67-69.059s-2.062-48.298-6.022-71.559l0.352 2.5h-80.594zM563.897 534.307h73.062c-5.421-20.386-12.326-38.097-20.921-54.795l0.708 1.514c-15.582-30.039-34.627-48.607-52.849-55.663zM529.27 425.363c-18.482 7.055-37.31 25.624-52.892 55.663-7.888 15.185-14.792 32.896-19.78 51.394l-0.434 1.888h73.106zM529.27 568.804h-80.507c-3.635 20.762-5.713 44.667-5.713 69.059s2.078 48.298 6.067 71.551l-0.354-2.492h80.637zM529.27 850.147v-108.728h-72.976c5.421 20.386 12.326 38.097 20.921 54.795l-0.708-1.514c15.582 30.082 34.237 48.434 52.892 55.663zM471.79 849.108c-9.688-11.239-18.316-23.874-25.443-37.422l-0.527-1.1c-10.236-19.854-18.868-42.935-24.709-67.105l-0.439-2.149h-72.889c26.535 50.027 69.924 88.152 122.442 107.278l1.565 0.498zM322.245 637.841c0.037 24.767 4.073 48.578 11.496 70.841l-0.459-1.587h80.507c-3.333-20.756-5.237-44.685-5.237-69.059s1.904-48.303 5.572-71.646l-0.335 2.588h-80.507c-6.925 20.552-10.958 44.224-11.037 68.826v0.038zM420.715 534.307c6.28-26.319 14.912-49.4 25.973-71.032l-0.826 1.778c7.614-14.653 16.245-27.292 26.18-38.771l-0.21 0.248c-54.084 19.624-97.472 57.749-123.417 106.559l-0.59 1.217zM201.398 102.771c0 19.124-15.503 34.627-34.627 34.627s-34.627-15.503-34.627-34.627c0-19.124 15.503-34.627 34.627-34.627v0c19.124 0 34.627 15.503 34.627 34.627v0zM955.872 356.629l-17.313 17.313c-14.044 13.786-33.309 22.295-54.561 22.295-0.281 0-0.561-0.001-0.841-0.004h0.043c-0.163 0.001-0.357 0.002-0.55 0.002-15.863 0-30.641-4.648-43.046-12.656l0.312 0.189c-12.233 7.819-27.151 12.463-43.154 12.463s-30.921-4.644-43.48-12.658l0.326 0.195c-12.084 7.819-26.853 12.468-42.708 12.468-0.202 0-0.404-0.001-0.606-0.002h0.031c-0.193 0.002-0.421 0.003-0.649 0.003-21.307 0-40.623-8.525-54.723-22.349l0.013 0.012-29.433-29.433h-199.71c-39.295-0.073-74.856-16.002-100.637-41.728l0.003 0.003-37.44-37.397c-4.43-4.435-10.551-7.18-17.312-7.185h-0.001v34.627c0 9.562-7.751 17.313-17.313 17.313v0h-172.528c-9.562 0-17.313-7.751-17.313-17.313s7.751-17.313 17.313-17.313v0h155.344v-241.738h-155.344c-9.562 0-17.313-7.751-17.313-17.313s7.751-17.313 17.313-17.313v0h172.614c9.562 0 17.313 7.751 17.313 17.313v0 17.313h207.155l4.761 0.649 241.652 69.037c2.921 0.841 5.427 2.34 7.447 4.33l-0.002-0.002 224.338 224.641c3.111 3.129 5.035 7.443 5.035 12.206s-1.923 9.077-5.035 12.207l0.001-0.001zM679.55 349.487c7.778 7.53 18.392 12.17 30.090 12.17 0.286 0 0.572-0.003 0.857-0.008l-0.043 0.001c5.703-0.009 11.162-1.040 16.208-2.919l-0.323 0.105-59.125-59.125c0.38 3.048 0.6 6.581 0.606 10.164v17.32c-0.1 3.046-0.972 5.868-2.424 8.303l0.044-0.079zM765.857 349.487c7.788 7.58 18.437 12.255 30.178 12.255 0.255 0 0.51-0.002 0.765-0.007l-0.038 0.001c5.723-0.025 11.195-1.071 16.252-2.963l-0.324 0.106-117.991-117.991h-37.483zM710.065 135.407l-234.899-67.046h-204.731v155.214c16.282 0.030 31.013 6.64 41.682 17.313v0l37.527 37.483c19.523 19.453 46.439 31.498 76.168 31.554h207.772c0-28.686-23.254-51.94-51.94-51.94v0h-95.224c-14.343 0-25.97-11.627-25.97-25.97s11.627-25.97 25.97-25.97v0h215.725c4.715 0.082 8.958 2.036 12.031 5.149l138.076 138.12c8.088 7.559 18.987 12.201 30.969 12.201s22.881-4.642 30.995-12.225l-0.026 0.024 5.021-5.064z" />
<glyph unicode="&#xe908;" glyph-name="web_icons-77" d="M551.604 388.658c0.013 0 0.028 0 0.043 0 152.776 0 276.625 123.849 276.625 276.625s-123.849 276.625-276.625 276.625c-152.776 0-276.625-123.849-276.625-276.625 0-0.015 0-0.030 0-0.045v0.002c0-0.013 0-0.028 0-0.043 0-152.728 123.81-276.538 276.538-276.538 0.015 0 0.030 0 0.045 0h-0.002zM551.604 902.39c130.932-0.025 237.063-106.172 237.063-237.107 0-130.95-106.156-237.107-237.107-237.107s-237.107 106.156-237.107 237.107c0 0.015 0 0.031 0 0.046v-0.003c0.197 130.895 106.255 236.953 237.131 237.15h0.019zM156.426 72.689c-0.049 21.788-17.723 39.431-39.518 39.431-21.825 0-39.518-17.693-39.518-39.518 0-21.81 17.668-39.493 39.472-39.518h0.002c0.013 0 0.028 0 0.043 0 21.825 0 39.518 17.693 39.518 39.518 0 0.030 0 0.061 0 0.091v-0.005zM1020.061 363.338l-19.781 19.737c-16.134 15.794-38.242 25.541-62.627 25.541-0.275 0-0.55-0.001-0.825-0.004h0.042c-0.14 0.001-0.305 0.001-0.47 0.001-18.16 0-35.077-5.326-49.273-14.501l0.357 0.216c-14.003 8.962-31.084 14.286-49.408 14.286s-35.405-5.323-49.78-14.508l0.372 0.222c-13.839 8.959-30.756 14.285-48.916 14.285-0.165 0-0.331 0-0.496-0.001h0.025c-0.251 0.003-0.547 0.004-0.844 0.004-24.374 0-46.466-9.765-62.579-25.597l0.013 0.013-33.675-33.718h-228.883c-0.017 0-0.037 0-0.057 0-44.93 0-85.612-18.193-115.079-47.614l0.002 0.002-42.807-43.11c-5.060-5.037-12.032-8.158-19.733-8.181h-0.004v39.518c0 0.026 0 0.056 0 0.087 0 10.853-8.798 19.651-19.651 19.651-0.046 0-0.091 0-0.137 0h-197.712c-10.901 0-19.737-8.837-19.737-19.737s8.837-19.737 19.737-19.737h177.852v-276.625h-177.852c-0.276 0.014-0.6 0.022-0.925 0.022-10.924 0-19.781-8.856-19.781-19.781s8.856-19.781 19.781-19.781c0.325 0 0.649 0.008 0.97 0.023l-0.045-0.002h197.589c10.915 0.025 19.756 8.866 19.781 19.778v19.739h237.063l5.454 0.736 276.581 79.079c3.392 0.964 6.306 2.687 8.661 4.982l256.883 256.883c3.555 3.588 5.752 8.528 5.752 13.981s-2.197 10.392-5.753 13.982l0.002-0.002zM704.092 355.157c8.95 8.654 21.158 13.987 34.612 13.987 0.279 0 0.558-0.002 0.836-0.007l-0.042 0.001c6.562-0.017 12.838-1.222 18.631-3.411l-0.366 0.121-67.955-68.085c0.428 3.494 0.679 7.553 0.692 11.668v19.799c-0.093 3.48-1.095 6.708-2.775 9.478l0.048-0.086zM802.908 355.157c8.937 8.653 21.134 13.987 34.577 13.987 0.276 0 0.552-0.002 0.827-0.007l-0.041 0.001c6.562-0.012 12.838-1.218 18.629-3.41l-0.364 0.121-135.088-135.044h-42.851zM739.022 110.086l-269.007-76.871h-234.51v177.679c18.596 0.049 35.419 7.598 47.612 19.781l42.937 42.893c22.326 22.288 53.133 36.087 87.163 36.142h237.766c-0.074-32.696-26.559-59.181-59.248-59.255h-109.254c-0.338 0.014-0.734 0.022-1.133 0.022-16.375 0-29.649-13.274-29.649-29.649s13.274-29.649 29.649-29.649c0.398 0 0.795 0.008 1.189 0.023l-0.057-0.002h246.975c0.028 0 0.061 0 0.095 0 5.41 0 10.306 2.201 13.842 5.756l158.072 158.115c9.253 8.648 21.72 13.958 35.428 13.958s26.175-5.31 35.457-13.985l-0.030 0.027 5.8-5.8zM531.867 645.632h39.475c21.825 0 39.518-17.693 39.518-39.518s-17.693-39.518-39.518-39.518v0h-98.773c-10.519-0.508-18.855-9.16-18.855-19.759s8.336-19.251 18.81-19.757l0.045-0.002h59.298v-39.561c0.508-10.519 9.16-18.855 19.759-18.855s19.251 8.336 19.757 18.81l0.002 0.045v39.648c43.65 0 79.036 35.385 79.036 79.036s-35.385 79.036-79.036 79.036v0h-39.518c-21.825 0-39.518 17.693-39.518 39.518s17.693 39.518 39.518 39.518h98.816c10.901 0 19.737 8.837 19.737 19.737s-8.837 19.737-19.737 19.737h-59.342v39.388c0.014 0.276 0.022 0.6 0.022 0.925 0 10.924-8.856 19.781-19.781 19.781s-19.781-8.856-19.781-19.781c0-0.325 0.008-0.649 0.023-0.97l-0.002 0.045v-39.518c-0.551 0.014-1.199 0.022-1.849 0.022-43.65 0-79.036-35.385-79.036-79.036s35.385-79.036 79.036-79.036c0.65 0 1.299 0.008 1.945 0.023l-0.096-0.002z" />
<glyph unicode="&#xe909;" glyph-name="web_icons-78" d="M116.865 606.071c0 10.901-8.837 19.737-19.737 19.737h-79.036c-10.901 0-19.737-8.837-19.737-19.737s8.837-19.737 19.737-19.737h79.079c10.882 0.025 19.694 8.852 19.694 19.737 0 0 0 0 0 0v0zM204.687 885.509c3.532-3.33 8.306-5.377 13.558-5.377 10.924 0 19.781 8.856 19.781 19.781 0 5.252-2.047 10.026-5.386 13.567l0.009-0.010-27.918 27.918c-3.616 3.835-8.731 6.223-14.404 6.223-10.924 0-19.781-8.856-19.781-19.781 0-5.673 2.388-10.787 6.213-14.394l0.010-0.009zM74.404 835.95l68.431-39.518c2.824-1.686 6.228-2.684 9.866-2.684 0.001 0 0.002 0 0.003 0v0c10.89 0.045 19.701 8.884 19.701 19.78 0 7.26-3.911 13.606-9.741 17.047l-0.092 0.050-68.388 39.518c-2.836 1.669-6.248 2.655-9.89 2.655-10.908 0-19.752-8.843-19.752-19.752 0-7.266 3.924-13.616 9.768-17.047l0.093-0.050zM169.844 408.482c-3.481 5.965-9.851 9.909-17.141 9.909-3.632 0-7.036-0.979-9.962-2.688l0.094 0.051-68.474-39.518c-5.964-3.482-9.907-9.85-9.907-17.14 0-10.924 8.856-19.781 19.781-19.781 0.014 0 0.027 0 0.041 0h-0.002c0.001 0 0.002 0 0.003 0 3.637 0 7.042 0.997 9.955 2.733l-0.089-0.049 68.431 39.518c5.962 3.471 9.906 9.832 9.906 17.114 0 3.626-0.978 7.024-2.685 9.945l0.050-0.094zM1006.037 625.808h-79.036c-10.901 0-19.737-8.837-19.737-19.737s8.837-19.737 19.737-19.737h79.036c10.901 0 19.737 8.837 19.737 19.737s-8.837 19.737-19.737 19.737v0zM819.442 326.633c-3.576 3.582-8.52 5.797-13.981 5.797-10.911 0-19.756-8.845-19.756-19.756 0-5.45 2.207-10.385 5.776-13.959v0l27.961-27.961c3.574-3.569 8.509-5.776 13.959-5.776 10.911 0 19.756 8.845 19.756 19.756 0 5.461-2.216 10.404-5.797 13.98v0zM204.817 326.633l-27.918-27.961c-3.582-3.576-5.797-8.52-5.797-13.981 0-10.911 8.845-19.756 19.756-19.756 5.45 0 10.385 2.207 13.959 5.776v0l27.961 27.961c3.33 3.532 5.377 8.306 5.377 13.558 0 10.924-8.856 19.781-19.781 19.781-5.252 0-10.026-2.047-13.567-5.386l0.010 0.009zM805.462 879.709c0.028 0 0.061 0 0.095 0 5.41 0 10.306 2.201 13.842 5.756l0.001 0.001 28.004 27.961c3.33 3.532 5.377 8.306 5.377 13.558 0 10.924-8.856 19.781-19.781 19.781-5.252 0-10.026-2.047-13.567-5.386l0.010 0.009-27.918-27.918c-3.576-3.579-5.787-8.522-5.787-13.981 0-10.905 8.824-19.749 19.721-19.78h0.003zM78.3 469.382l38.089 10.172c8.96 2.010 15.554 9.897 15.554 19.324 0 10.924-8.856 19.781-19.781 19.781-2.139 0-4.199-0.34-6.128-0.968l0.14 0.039-38.176-10.172c-8.646-2.242-14.928-9.975-14.928-19.176 0-10.924 8.856-19.781 19.781-19.781 0.090 0 0.179 0.001 0.269 0.002h-0.014c1.83 0.027 3.584 0.309 5.241 0.814l-0.134-0.035zM945.917 742.76l-38.176-10.172c-8.645-2.242-14.926-9.976-14.926-19.176 0-10.924 8.856-19.781 19.781-19.781 0.074 0 0.148 0 0.221 0.001h-0.011c0.004 0 0.010 0 0.015 0 1.828 0 3.596 0.253 5.273 0.725l-0.137-0.033 38.176 10.301c8.494 2.33 14.631 9.981 14.631 19.066 0 10.901-8.837 19.739-19.739 19.739-1.816 0-3.576-0.245-5.246-0.705l0.139 0.032zM67.998 704.628l38.176-10.172c1.518-0.44 3.262-0.693 5.066-0.693 0.015 0 0.029 0 0.044 0h-0.002c0.076-0.001 0.166-0.002 0.255-0.002 10.924 0 19.781 8.856 19.781 19.781 0 9.201-6.282 16.935-14.791 19.146l-0.137 0.030-38.176 10.172c-1.532 0.425-3.291 0.67-5.107 0.67-10.936 0-19.801-8.865-19.801-19.801 0-9.12 6.165-16.799 14.555-19.099l0.139-0.032zM956.132 507.558l-38.176 10.172c-1.532 0.427-3.291 0.672-5.107 0.672-10.901 0-19.739-8.837-19.739-19.739 0-9.085 6.138-16.736 14.493-19.034l0.139-0.032 38.176-10.215c1.531-0.44 3.289-0.693 5.107-0.693 0.015 0 0.031 0 0.046 0h-0.002c0.062-0.001 0.136-0.001 0.21-0.001 10.924 0 19.781 8.856 19.781 19.781 0 9.2-6.281 16.933-14.789 19.145l-0.137 0.030zM949.726 376.193l-68.431 39.518c-2.831 1.662-6.235 2.644-9.869 2.644-10.902 0-19.741-8.838-19.741-19.741 0-7.269 3.929-13.62 9.779-17.047l0.093-0.050 68.431-39.561c2.637-1.39 5.762-2.206 9.078-2.206 10.924 0 19.781 8.856 19.781 19.781 0 6.966-3.601 13.092-9.044 16.616l-0.077 0.047zM854.502 803.66c3.519-5.941 9.896-9.862 17.189-9.862 3.611 0 6.997 0.961 9.917 2.642l-0.097-0.051 68.431 39.561c5.943 3.477 9.872 9.828 9.872 17.097 0 10.902-8.838 19.741-19.741 19.741-3.633 0-7.038-0.982-9.962-2.694l0.093 0.050-68.431-39.518c-6.046-3.462-10.053-9.875-10.053-17.224 0-3.581 0.952-6.941 2.616-9.838l-0.051 0.096zM512.087 961.688c-0.036 0-0.079 0-0.122 0-196.378 0-355.574-159.196-355.574-355.574 0-124.718 64.21-234.438 161.375-297.907l1.363-0.835c9.057-5.858 15.003-15.853 15.149-27.247v-88.97c0.025-25.589 16.325-47.364 39.106-55.534l0.412-0.129v-43.283h-1.428c-10.122-0.953-17.979-9.408-17.979-19.698 0-10.778 8.62-19.543 19.343-19.776h0.022v-19.694h-1.428c-10.125-0.949-17.988-9.406-17.988-19.699 0-10.766 8.601-19.523 19.306-19.775h2.836c8.992-34.375 39.75-59.337 76.347-59.385h118.516c43.625 0.025 78.986 35.371 79.036 78.988v0.005h1.385c10.534 0.384 18.927 9.015 18.927 19.607 0 10.836-8.784 19.62-19.62 19.62-0.244 0-0.486-0.004-0.727-0.013l0.035 0.001v20.3h1.385c10.278 0.703 18.35 9.213 18.35 19.608 0 10.853-8.798 19.651-19.651 19.651-0.030 0-0.059 0-0.089 0h0.005v23.589c23.169 8.331 39.452 30.087 39.518 55.654v88.912c0.146 11.415 6.092 21.411 15.021 27.191l0.128 0.078c98.528 64.304 162.738 174.025 162.738 298.742 0 196.378-159.196 355.574-355.574 355.574-0.043 0-0.086 0-0.129 0h0.007zM571.342-26.214h-118.51c-15.715 0.096-29.256 9.31-35.606 22.614l-0.103 0.24 193.434 13.807c-1.509-20.502-18.471-36.575-39.206-36.661h-0.009zM610.859 50.052l-197.546-14.11v19.434l197.546 14.154zM610.859 109.35l-197.546-14.154v36.661h197.546zM683.576 340.57c-20.044-13.012-33.124-35.273-33.155-60.592v-88.953c-0.049-10.905-8.876-19.732-19.776-19.781h-98.821v268.357l112.797 112.797c3.586 3.574 5.805 8.518 5.805 13.981 0 10.901-8.837 19.737-19.737 19.737-0.032 0-0.065 0-0.097 0h-237.058c-10.9-0.032-19.725-8.876-19.725-19.78 0-5.438 2.194-10.363 5.745-13.938l112.796-112.752v-268.357h-98.816c-10.915 0.025-19.756 8.866-19.781 19.778v89.036c-0.048 25.319-13.122 47.574-32.876 60.427l-0.279 0.17c-87.479 57.154-144.48 154.612-144.48 265.383 0 174.505 141.464 315.969 315.969 315.969s315.969-141.464 315.969-315.969c0-110.771-57.001-208.229-143.272-264.641l-1.208-0.741zM512.087 475.961l-70.855 70.855h141.667zM512.087 843.178c-130.949-0.025-237.101-106.161-237.15-237.102v-0.005c0.508-10.543 9.18-18.898 19.802-18.898s19.294 8.355 19.8 18.852l0.002 0.045c0.172 109.056 88.533 197.417 197.573 197.589h0.016c10.519 0.508 18.855 9.16 18.855 19.759s-8.336 19.251-18.81 19.757l-0.045 0.002z" />
<glyph unicode="&#xe90a;" glyph-name="web_icons-79" d="M704.092 618.667h-469.323c-11.785 0-21.339-9.554-21.339-21.339s9.554-21.339 21.339-21.339v0h469.323c11.785 0 21.339 9.554 21.339 21.339s-9.554 21.339-21.339 21.339v0zM704.092 533.312h-469.323c-0.287 0.014-0.623 0.022-0.961 0.022-11.785 0-21.339-9.554-21.339-21.339s9.554-21.339 21.339-21.339c0.338 0 0.674 0.008 1.008 0.023l-0.047-0.002h469.323c0.287-0.014 0.623-0.022 0.961-0.022 11.785 0 21.339 9.554 21.339 21.339s-9.554 21.339-21.339 21.339c-0.338 0-0.674-0.008-1.008-0.023l0.047 0.002zM704.092 448h-469.323c-11.785 0-21.339-9.554-21.339-21.339s9.554-21.339 21.339-21.339h469.323c11.785 0 21.339 9.554 21.339 21.339s-9.554 21.339-21.339 21.339v0zM533.425 362.688h-298.656c-0.287 0.014-0.623 0.022-0.961 0.022-11.785 0-21.339-9.554-21.339-21.339s9.554-21.339 21.339-21.339c0.338 0 0.674 0.008 1.008 0.023l-0.047-0.002h298.656c11.364 0.528 20.378 9.87 20.378 21.317s-9.014 20.789-20.331 21.315l-0.047 0.002zM874.759 874.645h-21.382v21.339c0 0.026 0 0.056 0 0.087 0 35.307-28.622 63.93-63.93 63.93h-469.149c-5.891-0.025-11.221-2.4-15.108-6.235l0.002 0.002-213.561-213.344c-3.807-3.88-6.164-9.194-6.19-15.058v-640.037c0-0.013 0-0.028 0-0.043 0-35.307 28.622-63.93 63.93-63.93 0.015 0 0.030 0 0.046 0h21.336v-21.382c0.025-35.337 28.676-63.973 64.016-63.973h639.989c35.33 0.025 63.967 28.646 64.016 63.968v810.704c-0.025 35.337-28.676 63.973-64.016 63.973v0zM298.656 887.197v-119.159c-0.144-11.735-9.607-21.213-21.323-21.382h-119.089zM149.414 64.032c-11.75 0.145-21.237 9.632-21.382 21.368v618.621h149.371c35.355 0 64.016 28.661 64.016 64.016v149.328h448.027c11.732-0.169 21.195-9.647 21.339-21.368v-42.518s0 0 0 0v-768.151c-0.144-11.735-9.607-21.213-21.323-21.382h-0.016zM895.968-0.027c-0.025-11.775-9.564-21.314-21.336-21.339h-639.861c-11.735 0.144-21.213 9.607-21.382 21.323v21.398h576.060c35.307 0 63.93 28.622 63.93 63.93 0 0.015 0 0.030 0 0.046v-0.002 746.683h21.382c11.729-0.074 21.209-9.599 21.209-21.338 0 0 0 0 0 0v0z" />
<glyph unicode="&#xe90b;" glyph-name="web_icons-80" d="M1021.187 165.662l-291.471 291.471 216.72 216.677c19.975 20.019 32.327 47.652 32.327 78.17s-12.352 58.151-32.329 78.172l-48.822 48.822c-20.008 19.983-47.635 32.341-78.148 32.341s-58.141-12.358-78.149-32.342l-216.719-216.719-294.933 294.933c-2.903 2.757-6.837 4.452-11.167 4.452s-8.264-1.695-11.174-4.459l-204.334-204.334c-2.821-2.859-4.563-6.788-4.563-11.124s1.742-8.265 4.564-11.126l294.931-294.975-163.005-163.049c-0.756-0.762-1.44-1.597-2.039-2.493l-0.038-0.061c0.004-0.052 0.006-0.112 0.006-0.173s-0.002-0.121-0.006-0.181v0.008c-0.523-0.843-0.991-1.815-1.352-2.837l-0.033-0.106c-0.007-0.058-0.011-0.126-0.011-0.195s0.004-0.136 0.011-0.203l-0.001 0.008-89.207-271.56c-0.503-1.473-0.793-3.17-0.793-4.934 0-8.701 7.054-15.755 15.755-15.755 0.020 0 0.040 0 0.060 0h-0.003c0.053-0.001 0.115-0.001 0.177-0.001 1.687 0 3.308 0.286 4.816 0.811l-0.103-0.031 272.037 88.731c1.077 0.377 2.006 0.83 2.871 1.376l-0.058-0.034 0.519 0.26c0.938 0.637 1.758 1.306 2.515 2.039l163 163 291.298-291.211c2.859-2.857 6.807-4.623 11.167-4.623s8.309 1.767 11.167 4.623l204.341 204.341c2.906 2.86 4.707 6.836 4.707 11.232 0 4.31-1.731 8.216-4.535 11.061l0.002-0.002zM697.902 790.892l160.452-160.452-44.928-44.928-160.452 160.495zM763.65 856.639c14.316 14.231 34.049 23.027 55.836 23.027s41.519-8.796 55.84-23.031l48.776-48.776c14.231-14.316 23.027-34.049 23.027-55.836s-8.796-41.519-23.031-55.84l-43.279-43.279-160.582 160.322zM292.553 485.613l49.949 49.906c3.435 2.917 5.601 7.239 5.601 12.067 0 8.725-7.073 15.798-15.798 15.798-4.795 0-9.092-2.137-11.989-5.51l-0.018-0.021-50.036-49.949-37.18 37.18 90.895 90.895c2.528 2.79 4.076 6.51 4.076 10.591 0 8.725-7.073 15.798-15.798 15.798-4.070 0-7.781-1.539-10.582-4.068l0.014 0.012-90.895-90.895-37.224 37.18 49.949 49.949c2.516 2.787 4.055 6.498 4.055 10.568 0 8.725-7.073 15.798-15.798 15.798-4.081 0-7.801-1.548-10.605-4.088l0.013 0.012-49.689-50.122-37.18 37.18 90.895 90.895c2.681 2.825 4.33 6.653 4.33 10.866 0 8.725-7.073 15.798-15.798 15.798-4.213 0-8.040-1.649-10.873-4.336l-90.888-90.888-55.489 55.446 182.007 181.791 283.593-283.766-181.791-181.791zM630.64 723.672l160.495-160.495-462.181-462.224-160.538 160.452zM108.685 96.062l55.057-55.057-81.806-26.706zM197.373 52.259l-77.91 77.651 33.415 102.149 146.644-146.385zM805.678-27.512l-57.87 57.87 90.895 90.895c2.681 2.825 4.33 6.653 4.33 10.866 0 8.725-7.073 15.798-15.798 15.798-4.213 0-8.040-1.649-10.873-4.336l-90.888-90.888-34.627 34.627 50.339 50.295c3.041 2.885 4.933 6.956 4.933 11.469 0 8.725-7.073 15.798-15.798 15.798-4.513 0-8.583-1.892-11.462-4.926l-50.259-50.302-39.777 39.777 90.895 90.895c3.041 2.885 4.933 6.956 4.933 11.469 0 8.725-7.073 15.798-15.798 15.798-4.513 0-8.583-1.892-11.462-4.926l-90.902-90.902-34.627 34.627 50.252 50.295c3.041 2.885 4.933 6.956 4.933 11.469 0 8.725-7.073 15.798-15.798 15.798-4.513 0-8.583-1.892-11.462-4.926l-0.007-0.007-50.079-50.512-24.239 24.239 182.007 181.791 280.304-280.304z" />
<glyph unicode="&#xe90c;" glyph-name="web_icons-81" d="M1023.913 581.313l-71.677 135.867c-2.779 5.383-8.271 9.016-14.62 9.089h-230.235l-302.595 119.116-6.276 37.31c-1.356 7.956-8.199 13.937-16.44 13.937-0.003 0-0.006 0-0.009 0h-113.316c-0.004 0-0.010 0-0.015 0-8.249 0-15.101-5.978-16.462-13.838l-0.014-0.1-5.973-35.666-182.829-120.761h-48.391c0 0-0.001 0-0.001 0-9.227 0-16.707-7.48-16.707-16.707 0-0.061 0-0.122 0.001-0.182v0.009-135.867c0-9.227 7.48-16.707 16.707-16.707v0h190.707v-524.076h-97.215v-33.372h433.917v33.372h-110.243v524.076h302.984v-188.976h-30.991c-9.14-0.114-16.506-7.55-16.506-16.706 0-3.884 1.325-7.459 3.548-10.296l-0.028 0.036 83.537-106.737v-55.403h12.985c26.295 0 47.612-21.317 47.612-47.612s-21.317-47.612-47.612-47.612c-26.295 0-47.612 21.317-47.612 47.612v0h-33.372c-0.001-0.144-0.001-0.315-0.001-0.486 0-44.774 36.296-81.070 81.070-81.070s81.070 36.296 81.070 81.070c0 37.433-25.371 68.941-59.855 78.266l-0.568 0.131v25.104l83.667 106.91c2.223 2.806 3.566 6.397 3.566 10.302 0 9.164-7.396 16.6-16.545 16.664h-29.439v188.802h159.5c0.012 0 0.027 0 0.041 0 6.024 0 11.298 3.213 14.201 8.020l0.042 0.074c1.47 2.445 2.339 5.396 2.339 8.55 0 2.874-0.722 5.579-1.994 7.944l0.044-0.089zM616.356 726.269h-191.573l-13.591 80.68zM367.909 863.261l23.027-136.992h-131.235l23.027 137.165zM238.752 802.015l-12.769-75.746h-102.019zM398.9 32.739h-159.759v524.076h159.716zM791.654 266.945l-53.066 67.522h106.131zM816.283 367.839h-47.612v188.976h47.612zM415.521 590.229h-383.751v102.495h895.968l53.974-102.495zM297.357 487.864h41.336v-82.628h-41.336v82.628zM298.353 336.112h41.336v-82.628h-41.336v82.628zM298.353 193.84h41.336v-82.628h-41.336v82.628z" />
<glyph unicode="&#xe90d;" glyph-name="web_icons-82" d="M933.797 256.86c-3.333 3.313-7.915 5.372-12.978 5.41h-55.843v37.18h55.706c0.013 0 0.028 0 0.043 0 10.231 0 18.525 8.294 18.525 18.525 0 0 0 0 0 0v0 148.592c-0.075 5.072-2.144 9.646-5.455 12.986l0.001-0.001c-3.333 3.313-7.915 5.372-12.978 5.41h-55.843v37.137h55.706c10.261 0.024 18.569 8.348 18.569 18.612 0 0.046 0 0.091 0 0.137v-0.007 148.549c0 0 0 0 0 0 0 10.264-8.308 18.587-18.566 18.612h-55.751v92.843c0 0.026 0 0.056 0 0.087 0 10.207-8.275 18.482-18.482 18.482-0.031 0-0.061 0-0.091 0h-55.701v92.973c0 0.013 0 0.028 0 0.043 0 10.231-8.294 18.525-18.525 18.525-0.015 0-0.030 0-0.046 0h-612.848c-0.013 0-0.028 0-0.043 0-40.997 0-74.231-33.234-74.231-74.231 0-0.046 0-0.091 0-0.137v0.007s0 0 0-0.216v-798.363c0-0.013 0-0.028 0-0.043 0-51.276 41.567-92.843 92.843-92.843h668.556c10.245 0.025 18.544 8.323 18.569 18.566v92.888h55.749c0.013 0 0.028 0 0.043 0 10.231 0 18.525 8.294 18.525 18.525 0 0.015 0 0.030 0 0.046v-0.002 148.549c-0.017 5.136-2.097 9.784-5.455 13.159l0.001-0.001zM864.933 670.867h37.18v-111.455h-37.18zM864.933 448h37.18v-92.886h-37.18zM122.103 856.596c0.025 20.5 16.637 37.113 37.135 37.137h594.284v-74.318h-334.278v18.569c-0.025 10.245-8.323 18.544-18.566 18.569h-111.414c-0.026 0-0.056 0-0.087 0-10.207 0-18.482-8.275-18.482-18.482 0-0.031 0-0.061 0-0.091v0.005-18.569h-111.455c-20.43 0.049-36.99 16.548-37.137 36.95v0.014zM382.106 819.415v-169.541l-26.879 17.876c-2.888 1.951-6.448 3.114-10.28 3.114s-7.391-1.163-10.346-3.156l0.066 0.042-26.879-17.876v169.585zM196.377 2.267h-18.569c-30.751 0.074-55.657 24.995-55.706 55.744v734.569c10.618-6.403 23.423-10.222 37.115-10.301h37.159zM827.839 2.267h-594.109v780.011h37.18v-167.117c0-0.016 0-0.036 0-0.055 0-10.231 8.294-18.525 18.525-18.525 3.841 0 7.408 1.169 10.367 3.17l-0.065-0.042 45.448 30.298 45.404-30.298c2.876-1.978 6.434-3.16 10.269-3.16 0.012 0 0.023 0 0.035 0h-0.002c10.26 0.025 18.569 8.348 18.569 18.612 0 0 0 0 0 0v0 167.117h408.596zM902.114 113.722h-37.18v111.412h37.18zM313.242 554.001c-3.305-3.337-5.363-7.916-5.41-12.976v-297.15c0-0.013 0-0.028 0-0.043 0-10.231 8.294-18.525 18.525-18.525 0.015 0 0.030 0 0.046 0h408.594c10.227 0.049 18.501 8.338 18.525 18.566v296.97c0 0.013 0 0.028 0 0.043 0 10.231-8.294 18.525-18.525 18.525 0 0 0 0 0 0h-408.596c-0.001 0-0.002 0-0.003 0-5.13 0-9.778-2.066-13.157-5.412l0.002 0.001zM344.926 522.318h371.459v-260.047h-371.459zM660.679 373.682h-259.96c-10.255 0-18.569-8.313-18.569-18.569s8.313-18.569 18.569-18.569h259.96c10.255 0 18.569 8.313 18.569 18.569s-8.313 18.569-18.569 18.569v0zM660.679 448h-260.004c-10.255 0-18.569-8.313-18.569-18.569s8.313-18.569 18.569-18.569h260.004c10.255 0 18.569 8.313 18.569 18.569s-8.313 18.569-18.569 18.569v0z" />
<glyph unicode="&#xe90e;" glyph-name="web_icons-83" d="M543.381 724.192c0.146-0.003 0.319-0.005 0.492-0.005 5.064 0 9.796 1.418 13.821 3.88l-0.116-0.066c4.293 2.678 7.723 6.371 10.012 10.755l0.073 0.153c2.376 4.827 3.765 10.508 3.765 16.513s-1.39 11.685-3.865 16.737l0.099-0.225c-2.375 4.528-5.802 8.218-9.969 10.839l-0.116 0.068c-4.065 2.421-8.964 3.852-14.197 3.852s-10.132-1.431-14.327-3.923l0.13 0.071c-4.304-2.664-7.738-6.361-10.013-10.755l-0.072-0.152c-2.376-4.827-3.765-10.508-3.765-16.513s1.39-11.685 3.865-16.737l-0.099 0.225c2.335-4.554 5.772-8.254 9.968-10.84l0.117-0.067c3.909-2.395 8.641-3.814 13.705-3.814 0.173 0 0.346 0.002 0.518 0.005h-0.026zM900.036 736.051l-387.95 223.949-387.95-223.949 387.95-223.992zM457.463 692.768h-41.942v125.176h42.115zM479.537 726.183c-4.475 8.504-7.102 18.583-7.102 29.275 0 24.616 13.922 45.98 34.321 56.649l0.352 0.168c10.587 5.269 23.058 8.352 36.25 8.352s25.663-3.083 36.733-8.568l-0.483 0.217c20.593-11.16 34.343-32.61 34.343-57.271 0-13.437-4.082-25.92-11.073-36.278l0.146 0.23c-7.265-10.44-17.299-18.495-29.043-23.178l-0.433-0.152c1.498-1.674 3.312-3.030 5.352-3.983l0.102-0.043c1.734-0.714 3.747-1.129 5.856-1.129 0.117 0 0.234 0.001 0.351 0.004h-0.017c6.88 0.204 13.011 3.244 17.295 7.986l0.019 0.021 18.222-21.642c-4.258-5.068-9.588-9.094-15.653-11.752l-0.275-0.107c-5.58-2.316-12.061-3.662-18.856-3.662-0.568 0-1.135 0.009-1.699 0.028l0.082-0.002c-0.293-0.005-0.639-0.007-0.985-0.007-6.839 0-13.441 1.015-19.664 2.902l0.479-0.125c-6.833 2.257-12.764 5.42-18.027 9.416l0.151-0.11c-7.548 5.642-14.212 11.62-20.307 18.137l-0.079 0.086c-10.577 2.069-19.909 6.34-27.875 12.331l0.173-0.125c-7.827 5.906-14.127 13.411-18.49 22.060l-0.165 0.361zM796.762 612.347v-328.695l-284.675 164.347-284.632-164.347v328.695l-158.764 91.631v-512l158.764-91.631 284.632 164.304 284.675-164.304 158.764 91.631v512l-158.764-91.631zM290.389 63.989l221.698-127.989 221.698 127.989-221.698 127.989-221.698-127.989z" />
<glyph unicode="&#xe90f;" glyph-name="web_icons-84" d="M365.312 646.411h111.455v-103.274h92.41v103.274h106.044c13.496 0.025 24.431 10.959 24.455 24.453v168.548c-0.025 13.496-10.959 24.431-24.453 24.455h-309.912c-13.496-0.025-24.431-10.959-24.455-24.453v-168.548c0.025-13.496 10.959-24.431 24.453-24.455h0.002zM22.81 216.953h244.638c13.506 0 24.455-10.949 24.455-24.455v-135.91c0-13.506-10.949-24.455-24.455-24.455h-244.638c-13.506 0-24.455 10.949-24.455 24.455v135.91c0 13.506 10.949 24.455 24.455 24.455zM194.083 388.182h277.231v-100.547h97.864v100.547h260.956v-100.547h97.821v152.228c-0.074 26.983-21.928 48.837-48.903 48.91h-733.878c-26.991-0.074-48.855-21.922-48.954-48.901v-152.237h97.864zM400.632 216.953h244.638c13.506 0 24.455-10.949 24.455-24.455v-135.91c0-13.506-10.949-24.455-24.455-24.455h-244.638c-13.506 0-24.455 10.949-24.455 24.455v135.91c0 13.506 10.949 24.455 24.455 24.455zM756.725 216.953h244.638c13.506 0 24.455-10.949 24.455-24.455v-135.91c0-13.506-10.949-24.455-24.455-24.455h-244.638c-13.506 0-24.455 10.949-24.455 24.455v135.91c0 13.506 10.949 24.455 24.455 24.455z" />
<glyph unicode="&#xe910;" glyph-name="web_icons-85" d="M266.799 40.053h490.661c37.039 0.049 67.046 30.087 67.046 67.133 0 0.046 0 0.091 0 0.137v-0.007 490.445c0 0.013 0 0.028 0 0.043 0 37.037-30.012 67.065-67.044 67.089h-490.664c-37.076 0-67.133-30.056-67.133-67.133v0-490.445c0-0.026 0-0.056 0-0.087 0-37.085 30.051-67.151 67.13-67.176h0.002zM642.759 191.546h-261.346c-10.59 0-19.175 8.585-19.175 19.175s8.585 19.175 19.175 19.175h261.346c10.59 0 19.175-8.585 19.175-19.175s-8.585-19.175-19.175-19.175v0zM603.804 477.909c0.025 16.054 13.032 29.062 29.084 29.086h58.348c16.036-0.049 29.019-13.048 29.043-29.084v-58.478c-0.025-16.039-13.008-29.037-29.038-29.086h-58.524c-16.054 0.025-29.062 13.032-29.086 29.084v0.002zM304.066 477.909c0.025 16.054 13.032 29.062 29.084 29.086h58.348c16.036-0.049 29.019-13.048 29.043-29.084v-58.478c-0.025-16.039-13.008-29.037-29.038-29.086h-58.524c-16.054 0.025-29.062 13.032-29.086 29.084v0.002zM1025.818 344.423c0 0.018 0 0.039 0 0.060 0 50.831-23.682 96.131-60.614 125.469l-0.329 0.252v276.408c21.787 8.092 37.029 28.705 37.029 52.877 0 31.076-25.192 56.268-56.268 56.268s-56.268-25.192-56.268-56.268c0-24.172 15.242-44.785 36.64-52.75l0.389-0.127v-254.074c-17.934 7.667-38.793 12.162-60.693 12.249h-0.034v-320.774c88.474 0.123 160.149 71.874 160.149 160.365 0 0.015 0 0.031 0 0.046v-0.002zM-1.645 344.423c0-88.591 71.817-160.408 160.408-160.408v0 320.774c-22.004-0.048-42.944-4.547-61.986-12.643l1.043 0.394v254.074c21.775 8.098 37.007 28.705 37.007 52.869 0 31.076-25.192 56.268-56.268 56.268s-56.268-25.192-56.268-56.268c0-24.164 15.232-44.771 36.618-52.742l0.389-0.127v-276.408c-37.261-29.59-60.943-74.89-60.943-125.721 0-0.021 0-0.042 0-0.064v0.003z" />
</font>
</defs>
</svg>
